<svg aria-hidden="true" style="position: absolute; width: 0; height: 0; overflow: hidden;" version="1.1" xmlns="http://www.w3.org/2000/svg" xmlns:xlink="http://www.w3.org/1999/xlink">
<defs>
<symbol id="alitalia" viewBox="0 0 143 32">
<path d="M31.87 0.393c-1.839 0.958-3.445 2.53-16.195 15.84-1.99 2.055-6.663 6.934-11.329 11.818l-3.001 3.163-0.722 0.776 10.478-0.021 13.24-13.826c7.281-7.604 13.265-13.8 13.297-13.768 0.030 0.030-0.797 6.118-1.841 13.528-1.044 7.409-1.897 13.612-1.897 13.784 0 0.25 0.823 0.3 3.992 0.248l3.994-0.066 2.202-15.637c1.211-8.6 2.208-15.77 2.214-15.934 0.009-0.233-1.51-0.297-6.853-0.29-5.749 0.009-6.979 0.070-7.579 0.384zM48.608 8.296c-0.072 0.361-0.236 1.463-0.367 2.447-0.13 0.984-0.832 6.016-1.559 11.179-0.728 5.164-1.323 9.542-1.323 9.728 0 0.279 0.623 0.34 3.442 0.34h3.442l0.137-0.655c0.2-0.955 3.243-22.816 3.243-23.293 0-0.358-0.373-0.402-3.442-0.402h-3.442l-0.131 0.657zM59.116 8.058c-0.067 0.229-0.194 1.035-0.282 1.79l-0.162 1.371h6.939l0.13-0.655c0.072-0.361 0.2-1.167 0.285-1.79l0.155-1.135h-3.473c-3.101 0-3.485 0.046-3.593 0.419zM68.157 17.487c-1.417 10.095-1.582 12.108-1.068 13.099 0.744 1.435 0.614 1.403 5.85 1.403h4.826l0.163-1.253c0.090-0.69 0.222-1.495 0.296-1.79 0.128-0.523 0.081-0.538-1.745-0.541-1.032-0.002-2.028-0.101-2.214-0.218-0.468-0.296-0.434-0.925 0.349-6.548l0.686-4.928h4.808l2.491-4.059h-3.342c-2.514 0-3.34-0.073-3.339-0.299 0.002-0.288 0.355-2.725 0.588-4.058l0.114-0.657h-7.080l-1.384 9.848zM103.983 19.159c-0.887 6.334-1.67 11.814-1.74 12.175l-0.126 0.655h7.119l1.623-11.637c0.893-6.402 1.679-11.88 1.749-12.175l0.125-0.538h-7.136l-1.614 11.52zM115.931 8.296c-0.072 0.361-0.2 1.167-0.285 1.79l-0.155 1.134h3.474c1.911 0 3.525-0.081 3.584-0.178 0.061-0.099 0.186-0.905 0.28-1.79l0.172-1.612h-6.941l-0.13 0.657zM58.47 12.713c-0.011 0.032-0.634 4.382-1.387 9.669l-1.367 9.608h3.535c1.944 0 3.534-0.026 3.535-0.059 0-0.032 0.59-4.248 1.312-9.37 0.721-5.122 1.31-9.445 1.312-9.609 0-0.226-0.85-0.299-3.461-0.299-1.903 0-3.47 0.027-3.48 0.061zM84.212 14.525c-0.623 1.038-1.134 1.955-1.134 2.037s2.202 0.149 4.894 0.149c4.574 0 4.925 0.030 5.371 0.477 0.482 0.482 0.585 1.125 0.332 2.065-0.131 0.492-0.294 0.518-3.995 0.62-4.515 0.125-5.524 0.402-7.304 2.002-1.637 1.47-2.234 3.084-2.124 5.74 0.088 2.161 0.428 2.857 1.873 3.84 0.791 0.538 0.826 0.539 8.808 0.477l8.015-0.062 0.885-6.206c1.263-8.85 1.207-9.925-0.599-11.509-1.365-1.199-2.141-1.333-8.279-1.429l-5.611-0.088-1.134 1.888zM115.307 12.713c0 0.032-0.59 4.195-1.312 9.25-0.721 5.056-1.312 9.379-1.312 9.609-0.002 0.379 0.322 0.418 3.454 0.418 3.392 0 3.459-0.009 3.572-0.536 0.186-0.879 2.528-17.928 2.523-18.382-0.002-0.379-0.328-0.419-3.464-0.419-1.905 0-3.462 0.027-3.462 0.061zM125.949 14.127c-0.093 0.83-0.226 1.751-0.299 2.046l-0.13 0.538h4.815c2.863 0 5.004 0.099 5.278 0.247 0.37 0.198 0.462 0.506 0.462 1.551v1.304l-3.282 0.005c-3.677 0.005-5.442 0.323-7.070 1.277-1.867 1.094-2.907 2.866-3.173 5.397-0.239 2.287 0.312 3.714 1.92 4.962 0.681 0.53 0.763 0.535 8.747 0.535h8.058l0.137-0.776c0.21-1.184 1.541-10.851 1.719-12.477 0.294-2.709-0.581-4.387-2.813-5.396-1.21-0.547-1.507-0.571-7.73-0.645l-6.473-0.078-0.166 1.509zM24.443 22.494c-4.581 4.762-8.477 8.847-8.657 9.077-0.311 0.396 0.064 0.418 7.171 0.418h7.5l1.256-8.978c0.692-4.94 1.211-9.024 1.158-9.079-0.055-0.055-3.848 3.799-8.428 8.562zM93.019 24.052c-0.064 0.23-0.245 1.37-0.402 2.534l-0.285 2.115-2.388-0.096c-2.257-0.090-2.42-0.133-2.956-0.756-0.658-0.766-0.709-1.339-0.21-2.391 0.626-1.318 1.754-1.746 4.731-1.797 1.443-0.024 1.614 0.020 1.51 0.39zM135.342 24.172c-0.009 0.294-0.145 1.396-0.299 2.446l-0.282 1.911-1.67 0.073c-3.106 0.137-4.177-0.39-4.177-2.050 0-1.979 1.442-2.842 4.835-2.894 1.524-0.023 1.609 0.005 1.592 0.514z"></path>
</symbol>
<symbol id="app-store" viewBox="0 0 91 32">
<path fill="#080809" style="fill: var(--color1, #080809)" d="M16 0h59.429c8.837 0 16 7.163 16 16s-7.163 16-16 16h-59.429c-8.837 0-16-7.163-16-16s7.163-16 16-16z"></path>
<path fill="#fff" style="fill: var(--color2, #fff)" d="M19.922 21.943c-2.177-0.013-3.978-4.457-3.978-6.72 0-3.697 2.774-4.507 3.843-4.507 0.482 0 0.996 0.189 1.45 0.357 0.317 0.117 0.645 0.237 0.828 0.237 0.109 0 0.367-0.102 0.594-0.193 0.485-0.193 1.088-0.433 1.79-0.433 0.001 0 0.003 0 0.004 0 0.524 0 2.114 0.115 3.070 1.551l0.224 0.337-0.322 0.243c-0.46 0.347-1.3 0.981-1.3 2.236 0 1.487 0.951 2.058 1.408 2.333 0.202 0.121 0.41 0.247 0.41 0.52 0 0.179-1.426 4.016-3.498 4.016-0.507 0-0.865-0.152-1.181-0.287-0.32-0.136-0.596-0.253-1.051-0.253-0.231 0-0.523 0.109-0.832 0.225-0.423 0.158-0.901 0.337-1.444 0.337h-0.014z"></path>
<path fill="#fff" style="fill: var(--color2, #fff)" d="M24.667 7.314c0.054 1.945-1.337 3.294-2.726 3.21-0.229-1.552 1.389-3.21 2.726-3.21z"></path>
<path fill="#fff" style="fill: var(--color2, #fff)" d="M35.685 11.886h0.96l-1.306-3.84h-1.119l-1.306 3.84h0.96l0.192-0.603h1.426l0.192 0.603zM34.33 10.46l0.45-1.41 0.45 1.41h-0.9z"></path>
<path fill="#fff" style="fill: var(--color2, #fff)" d="M38.587 9.143l-0.571 1.739-0.571-1.739h-0.911l1.015 2.743h0.933l1.015-2.743h-0.911z"></path>
<path fill="#fff" style="fill: var(--color2, #fff)" d="M41.684 9.143v0.258c-0.181-0.208-0.45-0.335-0.817-0.335-0.719 0-1.311 0.631-1.311 1.448s0.592 1.448 1.311 1.448c0.368 0 0.636-0.126 0.817-0.335v0.258h0.823v-2.743h-0.823zM41.031 11.184c-0.379 0-0.653-0.258-0.653-0.669s0.274-0.669 0.653-0.669c0.379 0 0.653 0.258 0.653 0.669s-0.274 0.669-0.653 0.669z"></path>
<path fill="#fff" style="fill: var(--color2, #fff)" d="M43.111 11.886h0.823v-4.005h-0.823v4.005z"></path>
<path fill="#fff" style="fill: var(--color2, #fff)" d="M44.947 8.902c0.269 0 0.494-0.225 0.494-0.494s-0.225-0.494-0.494-0.494c-0.269 0-0.494 0.225-0.494 0.494s0.225 0.494 0.494 0.494zM44.536 11.886h0.823v-2.743h-0.823v2.743z"></path>
<path fill="#fff" style="fill: var(--color2, #fff)" d="M47.601 9.066c-0.368 0-0.636 0.126-0.817 0.335v-1.355h-0.823v3.84h0.823v-0.258c0.181 0.208 0.45 0.335 0.817 0.335 0.719 0 1.311-0.631 1.311-1.448s-0.592-1.448-1.311-1.448zM47.436 11.184c-0.379 0-0.653-0.258-0.653-0.669s0.274-0.669 0.653-0.669c0.379 0 0.653 0.258 0.653 0.669s-0.274 0.669-0.653 0.669z"></path>
<path fill="#fff" style="fill: var(--color2, #fff)" d="M49.378 11.886h0.823v-4.005h-0.823v4.005z"></path>
<path fill="#fff" style="fill: var(--color2, #fff)" d="M51.539 10.844h1.947c0.022-0.104 0.033-0.214 0.033-0.329 0-0.828-0.592-1.448-1.393-1.448-0.867 0-1.459 0.631-1.459 1.448s0.581 1.448 1.52 1.448c0.521 0 0.927-0.192 1.196-0.565l-0.658-0.379c-0.11 0.121-0.302 0.208-0.527 0.208-0.302 0-0.554-0.099-0.658-0.384zM51.522 10.229c0.077-0.28 0.285-0.433 0.598-0.433 0.247 0 0.494 0.115 0.581 0.433h-1.179z"></path>
<path fill="#fff" style="fill: var(--color2, #fff)" d="M56.674 11.963c0.806 0 1.454-0.631 1.454-1.448s-0.647-1.448-1.454-1.448c-0.806 0-1.454 0.631-1.454 1.448s0.647 1.448 1.454 1.448zM56.674 11.162c-0.357 0-0.631-0.258-0.631-0.647s0.274-0.647 0.631-0.647c0.357 0 0.631 0.258 0.631 0.647s-0.274 0.647-0.631 0.647z"></path>
<path fill="#fff" style="fill: var(--color2, #fff)" d="M60.2 9.066c-0.362 0-0.636 0.132-0.784 0.335v-0.258h-0.823v2.743h0.823v-1.498c0-0.389 0.208-0.565 0.51-0.565 0.263 0 0.477 0.159 0.477 0.499v1.563h0.823v-1.684c0-0.741-0.472-1.136-1.026-1.136z"></path>
<path fill="#fff" style="fill: var(--color2, #fff)" d="M64.77 9.933v-0.79h-0.565v-0.768l-0.823 0.247v0.521h-0.439v0.79h0.439v0.971c0 0.768 0.313 1.092 1.388 0.982v-0.746c-0.362 0.022-0.565 0-0.565-0.236v-0.971h0.565z"></path>
<path fill="#fff" style="fill: var(--color2, #fff)" d="M66.843 9.066c-0.362 0-0.636 0.132-0.784 0.335v-1.355h-0.823v3.84h0.823v-1.498c0-0.389 0.208-0.565 0.51-0.565 0.263 0 0.477 0.159 0.477 0.499v1.563h0.823v-1.684c0-0.741-0.472-1.136-1.026-1.136z"></path>
<path fill="#fff" style="fill: var(--color2, #fff)" d="M69.169 10.844h1.947c0.022-0.104 0.033-0.214 0.033-0.329 0-0.828-0.592-1.448-1.393-1.448-0.867 0-1.459 0.631-1.459 1.448s0.582 1.448 1.52 1.448c0.521 0 0.927-0.192 1.196-0.565l-0.658-0.379c-0.11 0.121-0.302 0.208-0.527 0.208-0.302 0-0.554-0.099-0.658-0.384zM69.152 10.229c0.077-0.28 0.285-0.433 0.598-0.433 0.247 0 0.494 0.115 0.582 0.433h-1.179z"></path>
<path fill="#fff" style="fill: var(--color2, #fff)" d="M37.531 21.943h1.6l-2.176-6.4h-1.865l-2.176 6.4h1.6l0.32-1.006h2.377l0.32 1.006zM35.273 19.566l0.75-2.35 0.75 2.35h-1.499z"></path>
<path fill="#fff" style="fill: var(--color2, #fff)" d="M42.365 17.244c-0.613 0-1.061 0.21-1.362 0.558v-0.43h-1.371v6.4h1.371v-2.258c0.302 0.347 0.75 0.558 1.362 0.558 1.198 0 2.185-1.051 2.185-2.414s-0.987-2.414-2.185-2.414zM42.091 20.773c-0.631 0-1.088-0.43-1.088-1.115s0.457-1.115 1.088-1.115c0.631 0 1.088 0.43 1.088 1.115s-0.457 1.115-1.088 1.115z"></path>
<path fill="#fff" style="fill: var(--color2, #fff)" d="M48.062 17.244c-0.613 0-1.061 0.21-1.362 0.558v-0.43h-1.371v6.4h1.371v-2.258c0.302 0.347 0.75 0.558 1.362 0.558 1.198 0 2.185-1.051 2.185-2.414s-0.987-2.414-2.185-2.414zM47.787 20.773c-0.631 0-1.088-0.43-1.088-1.115s0.457-1.115 1.088-1.115c0.631 0 1.088 0.43 1.088 1.115s-0.457 1.115-1.088 1.115z"></path>
<path fill="#fff" style="fill: var(--color2, #fff)" d="M51.024 21.943h1.371v-6.674h-1.371v6.674z"></path>
<path fill="#fff" style="fill: var(--color2, #fff)" d="M54.624 20.206h3.246c0.037-0.174 0.055-0.357 0.055-0.549 0-1.381-0.987-2.414-2.322-2.414-1.445 0-2.432 1.051-2.432 2.414s0.969 2.414 2.533 2.414c0.869 0 1.545-0.32 1.993-0.942l-1.097-0.631c-0.183 0.201-0.503 0.347-0.878 0.347-0.503 0-0.923-0.165-1.097-0.64zM54.597 19.182c0.128-0.466 0.475-0.722 0.997-0.722 0.411 0 0.823 0.192 0.969 0.722h-1.966z"></path>
<path fill="#fff" style="fill: var(--color2, #fff)" d="M63.274 22.071c1.39 0 2.377-0.731 2.377-1.966 0-1.353-1.088-1.691-2.057-1.984-0.997-0.302-1.152-0.503-1.152-0.795 0-0.256 0.229-0.485 0.686-0.485 0.585 0 0.887 0.283 1.106 0.741l1.234-0.722c-0.466-0.942-1.289-1.445-2.341-1.445-1.106 0-2.148 0.713-2.148 1.947 0 1.225 0.932 1.682 1.883 1.947 0.96 0.265 1.326 0.421 1.326 0.814 0 0.247-0.174 0.521-0.869 0.521-0.722 0-1.115-0.357-1.344-0.887l-1.262 0.731c0.357 0.942 1.216 1.582 2.56 1.582z"></path>
<path fill="#fff" style="fill: var(--color2, #fff)" d="M68.882 18.688v-1.317h-0.942v-1.28l-1.371 0.411v0.869h-0.731v1.317h0.731v1.618c0 1.28 0.521 1.819 2.313 1.637v-1.243c-0.603 0.037-0.942 0-0.942-0.393v-1.618h0.942z"></path>
<path fill="#fff" style="fill: var(--color2, #fff)" d="M71.763 22.071c1.344 0 2.423-1.051 2.423-2.414s-1.079-2.414-2.423-2.414c-1.344 0-2.423 1.051-2.423 2.414s1.079 2.414 2.423 2.414zM71.763 20.736c-0.594 0-1.051-0.43-1.051-1.079s0.457-1.079 1.051-1.079c0.594 0 1.051 0.43 1.051 1.079s-0.457 1.079-1.051 1.079z"></path>
<path fill="#fff" style="fill: var(--color2, #fff)" d="M76.333 18.185v-0.814h-1.371v4.571h1.371v-2.066c0-0.905 0.805-1.134 1.371-1.042v-1.554c-0.576 0-1.189 0.293-1.371 0.905z"></path>
<path fill="#fff" style="fill: var(--color2, #fff)" d="M79.437 20.206h3.246c0.037-0.174 0.055-0.357 0.055-0.549 0-1.381-0.987-2.414-2.322-2.414-1.445 0-2.432 1.051-2.432 2.414s0.969 2.414 2.533 2.414c0.869 0 1.545-0.32 1.993-0.942l-1.097-0.631c-0.183 0.201-0.503 0.347-0.878 0.347-0.503 0-0.923-0.165-1.097-0.64zM79.409 19.182c0.128-0.466 0.475-0.722 0.997-0.722 0.411 0 0.823 0.192 0.969 0.722h-1.966z"></path>
</symbol>
<symbol id="axon" viewBox="0 0 32 32">
<path d="M5.28 11.59c0 0.033 1.163 0.906 2.747 2.061 1.856 1.354 1.884 1.377 2.077 1.671 0.438 0.669 0.363 1.259-0.231 1.815-0.251 0.235-1.038 0.671-1.23 0.682-0.046 0.003-0.011 0.028 0.077 0.056 0.213 0.068 0.906 0.012 1.467-0.119 0.549-0.128 1.234-0.454 1.508-0.717 0.11-0.106 0.219-0.185 0.241-0.176s0.28 0.176 0.572 0.369c0.56 0.37 0.679 0.425 3.732 1.742 2.635 1.137 3.053 1.309 2.96 1.224-0.044-0.041-0.836-0.622-1.76-1.293-3.193-2.317-3.39-2.478-3.606-2.931-0.142-0.3-0.165-0.662-0.063-1.007 0.115-0.389 0.707-0.894 1.268-1.082 0.175-0.059 0.159-0.063-0.24-0.066-0.235-0.002-0.583 0.033-0.773 0.076-0.466 0.107-1.199 0.417-1.492 0.631l-0.238 0.174-0.482-0.325c-0.391-0.264-0.857-0.481-2.481-1.158-1.61-0.671-2.831-1.169-3.987-1.628-0.037-0.015-0.067-0.014-0.067 0.002zM23.787 18.8v0.72h0.267v-1.44h-0.267v0.72zM21.18 18.181c-0.101 0.064-0.027 0.165 0.121 0.165 0.158 0 0.206-0.052 0.132-0.142-0.068-0.082-0.148-0.090-0.253-0.023zM24.835 18.169c-0.019 0.020-0.035 0.068-0.035 0.107 0 0.086 0.245 0.096 0.297 0.012 0.061-0.098-0.175-0.205-0.262-0.118zM19.453 18.597c-0.051 0.014-0.093 0.073-0.093 0.133 0 0.083 0.021 0.099 0.093 0.067 0.194-0.086 0.524-0.088 0.594-0.003 0.097 0.117 0.040 0.174-0.212 0.215-0.451 0.072-0.685 0.318-0.431 0.454 0.139 0.075 1.142 0.048 1.168-0.031 0.013-0.040-0.019-0.052-0.089-0.034-0.102 0.027-0.11 0.006-0.11-0.321 0-0.301-0.017-0.361-0.119-0.433-0.113-0.079-0.573-0.106-0.801-0.046zM21.12 19.040v0.48h0.32v-0.96h-0.32v0.48zM22.187 19.040c0 0.477 0.001 0.48 0.133 0.48 0.126 0 0.133-0.017 0.133-0.284 0-0.228 0.024-0.307 0.123-0.4 0.132-0.124 0.304-0.148 0.461-0.064 0.13 0.070 0.281-0.085 0.159-0.162-0.138-0.087-0.456-0.055-0.603 0.061l-0.141 0.111v-0.111c0-0.082-0.034-0.111-0.133-0.111-0.132 0-0.133 0.003-0.133 0.48zM24.8 19.040c0 0.477 0.001 0.48 0.133 0.48s0.133-0.003 0.133-0.48-0.001-0.48-0.133-0.48c-0.132 0-0.133 0.003-0.133 0.48zM25.813 19.040c0 0.477 0.001 0.48 0.133 0.48 0.128 0 0.133-0.013 0.133-0.345 0-0.328 0.008-0.349 0.157-0.427 0.209-0.108 0.302-0.103 0.429 0.025 0.083 0.083 0.107 0.178 0.107 0.427 0 0.306 0.006 0.32 0.133 0.32 0.129 0 0.133-0.011 0.133-0.371 0-0.313-0.018-0.388-0.117-0.48-0.132-0.123-0.508-0.149-0.698-0.048-0.085 0.046-0.119 0.046-0.134 0-0.011-0.034-0.078-0.061-0.149-0.061-0.127 0-0.129 0.008-0.129 0.48zM27.935 18.643c-0.271 0.147-0.336 0.449-0.143 0.657 0.152 0.163 0.323 0.22 0.662 0.22 0.345 0 0.56-0.073 0.56-0.191 0-0.062-0.027-0.076-0.094-0.048-0.215 0.091-0.65 0.093-0.786 0.004-0.232-0.152-0.156-0.192 0.373-0.192 0.5 0 0.507-0.002 0.507-0.129 0-0.078-0.064-0.183-0.164-0.267-0.135-0.114-0.217-0.138-0.467-0.136-0.166 0.001-0.368 0.038-0.448 0.081zM29.655 18.665c-0.144 0.144-0.092 0.24 0.203 0.372 0.361 0.162 0.412 0.195 0.383 0.248-0.033 0.059-0.411 0.061-0.573 0.003-0.098-0.035-0.12-0.023-0.12 0.062 0 0.122 0.134 0.168 0.491 0.169 0.337 0.001 0.523-0.088 0.523-0.251 0-0.105-0.062-0.157-0.347-0.29-0.408-0.191-0.405-0.285 0.007-0.243 0.216 0.022 0.286 0.013 0.286-0.041 0-0.099-0.123-0.135-0.458-0.135-0.217 0-0.315 0.026-0.394 0.105zM28.673 18.813c0.090 0.089 0.085 0.094-0.103 0.11-0.108 0.009-0.285 0.009-0.394 0-0.188-0.016-0.192-0.021-0.103-0.11 0.057-0.056 0.175-0.093 0.3-0.093s0.243 0.037 0.3 0.093zM20.107 19.198c0 0.138-0.023 0.162-0.187 0.193-0.194 0.036-0.374-0.049-0.313-0.148 0.037-0.060 0.333-0.197 0.433-0.2 0.039-0.001 0.066 0.064 0.066 0.156z"></path>
</symbol>
<symbol id="building" viewBox="0 0 32 32">
<path fill="#84829a" style="fill: var(--color3, #84829a)" d="M0.533 30.933h3.2v-17.6c0-0.295 0.239-0.533 0.533-0.533h7.467v-12.267c0-0.295 0.239-0.533 0.533-0.533h13.867c0.294 0 0.533 0.239 0.533 0.533v30.4h4.8c0.295 0 0.533 0.239 0.533 0.533s-0.239 0.533-0.533 0.533h-30.933c-0.295 0-0.533-0.239-0.533-0.533s0.239-0.533 0.533-0.533zM20.8 30.933h2.133v-4.8c0-0.295-0.239-0.533-0.533-0.533h-1.067c-0.295 0-0.533 0.239-0.533 0.533v4.8zM18.667 13.333v17.6h1.067v-4.8c0-0.884 0.716-1.6 1.6-1.6h1.067c0.884 0 1.6 0.716 1.6 1.6v4.8h1.6v-29.867h-12.8v11.733h5.333c0.295 0 0.533 0.239 0.533 0.533zM4.8 30.933h12.8v-17.067h-12.8v17.067z"></path>
<path fill="#84829a" style="fill: var(--color3, #84829a)" d="M14.933 7.467h3.2c0.295 0 0.533 0.239 0.533 0.533v3.2c0 0.295-0.239 0.533-0.533 0.533h-3.2c-0.295 0-0.533-0.239-0.533-0.533v-3.2c0-0.295 0.239-0.533 0.533-0.533zM15.467 10.667h2.133v-2.133h-2.133v2.133z"></path>
<path fill="#84829a" style="fill: var(--color3, #84829a)" d="M14.933 2.133h3.2c0.295 0 0.533 0.239 0.533 0.533v3.2c0 0.295-0.239 0.533-0.533 0.533h-3.2c-0.295 0-0.533-0.239-0.533-0.533v-3.2c0-0.295 0.239-0.533 0.533-0.533zM15.467 5.333h2.133v-2.133h-2.133v2.133z"></path>
<path fill="#84829a" style="fill: var(--color3, #84829a)" d="M20.267 7.467h3.2c0.295 0 0.533 0.239 0.533 0.533v3.2c0 0.295-0.239 0.533-0.533 0.533h-3.2c-0.294 0-0.533-0.239-0.533-0.533v-3.2c0-0.295 0.239-0.533 0.533-0.533zM20.8 10.667h2.133v-2.133h-2.133v2.133z"></path>
<path fill="#84829a" style="fill: var(--color3, #84829a)" d="M20.267 2.133h3.2c0.295 0 0.533 0.239 0.533 0.533v3.2c0 0.295-0.239 0.533-0.533 0.533h-3.2c-0.294 0-0.533-0.239-0.533-0.533v-3.2c0-0.295 0.239-0.533 0.533-0.533zM20.8 5.333h2.133v-2.133h-2.133v2.133z"></path>
<path fill="#84829a" style="fill: var(--color3, #84829a)" d="M20.267 12.8h3.2c0.295 0 0.533 0.239 0.533 0.533v3.2c0 0.295-0.239 0.533-0.533 0.533h-3.2c-0.294 0-0.533-0.239-0.533-0.533v-3.2c0-0.295 0.239-0.533 0.533-0.533zM20.8 16h2.133v-2.133h-2.133v2.133z"></path>
<path fill="#84829a" style="fill: var(--color3, #84829a)" d="M20.267 18.133h3.2c0.295 0 0.533 0.239 0.533 0.533v3.2c0 0.295-0.239 0.533-0.533 0.533h-3.2c-0.294 0-0.533-0.239-0.533-0.533v-3.2c0-0.295 0.239-0.533 0.533-0.533zM20.8 21.333h2.133v-2.133h-2.133v2.133z"></path>
<path fill="#84829a" style="fill: var(--color3, #84829a)" d="M10.133 24.533h-3.2c-0.295 0-0.533-0.239-0.533-0.533v-3.2c0-0.295 0.239-0.533 0.533-0.533h3.2c0.295 0 0.533 0.239 0.533 0.533v3.2c0 0.294-0.239 0.533-0.533 0.533zM9.6 21.333h-2.133v2.133h2.133v-2.133z"></path>
<path fill="#84829a" style="fill: var(--color3, #84829a)" d="M10.133 19.2h-3.2c-0.295 0-0.533-0.239-0.533-0.533v-3.2c0-0.295 0.239-0.533 0.533-0.533h3.2c0.295 0 0.533 0.239 0.533 0.533v3.2c0 0.295-0.239 0.533-0.533 0.533zM9.6 16h-2.133v2.133h2.133v-2.133z"></path>
<path fill="#84829a" style="fill: var(--color3, #84829a)" d="M10.133 29.867h-3.2c-0.295 0-0.533-0.239-0.533-0.533v-3.2c0-0.295 0.239-0.533 0.533-0.533h3.2c0.295 0 0.533 0.239 0.533 0.533v3.2c0 0.295-0.239 0.533-0.533 0.533zM9.6 26.667h-2.133v2.133h2.133v-2.133z"></path>
<path fill="#84829a" style="fill: var(--color3, #84829a)" d="M15.467 24.533h-3.2c-0.295 0-0.533-0.239-0.533-0.533v-3.2c0-0.295 0.239-0.533 0.533-0.533h3.2c0.295 0 0.533 0.239 0.533 0.533v3.2c0 0.294-0.239 0.533-0.533 0.533zM14.933 21.333h-2.133v2.133h2.133v-2.133z"></path>
<path fill="#84829a" style="fill: var(--color3, #84829a)" d="M15.467 19.2h-3.2c-0.295 0-0.533-0.239-0.533-0.533v-3.2c0-0.295 0.239-0.533 0.533-0.533h3.2c0.295 0 0.533 0.239 0.533 0.533v3.2c0 0.295-0.239 0.533-0.533 0.533zM14.933 16h-2.133v2.133h2.133v-2.133z"></path>
<path fill="#84829a" style="fill: var(--color3, #84829a)" d="M15.467 29.867h-3.2c-0.295 0-0.533-0.239-0.533-0.533v-3.2c0-0.295 0.239-0.533 0.533-0.533h3.2c0.295 0 0.533 0.239 0.533 0.533v3.2c0 0.295-0.239 0.533-0.533 0.533zM14.933 26.667h-2.133v2.133h2.133v-2.133z"></path>
</symbol>
<symbol id="car" viewBox="0 0 31 32">
<path fill="#006380" style="fill: var(--color4, #006380)" d="M8.667 0h14c4.786 0 8.667 3.88 8.667 8.667v14.667c0 4.786-3.88 8.667-8.667 8.667h-14c-4.786 0-8.667-3.88-8.667-8.667v-14.667c0-4.786 3.88-8.667 8.667-8.667z"></path>
<path fill="#fff" style="fill: var(--color2, #fff)" d="M11 17.417c-0.198 0-0.391 0.059-0.556 0.169s-0.293 0.266-0.368 0.449c-0.076 0.183-0.096 0.384-0.057 0.578s0.134 0.372 0.274 0.512c0.14 0.14 0.318 0.235 0.512 0.274s0.395 0.019 0.578-0.057c0.183-0.076 0.339-0.204 0.449-0.368s0.169-0.358 0.169-0.556c0-0.265-0.105-0.52-0.293-0.707s-0.442-0.293-0.707-0.293zM11 18.917c-0.099 0-0.196-0.029-0.278-0.084s-0.146-0.133-0.184-0.224c-0.038-0.091-0.048-0.192-0.028-0.289s0.067-0.186 0.137-0.256 0.159-0.118 0.256-0.137c0.097-0.019 0.198-0.009 0.289 0.028s0.169 0.102 0.224 0.184c0.055 0.082 0.084 0.179 0.084 0.278 0 0.133-0.053 0.26-0.146 0.354s-0.221 0.146-0.354 0.146z"></path>
<path fill="#fff" style="fill: var(--color2, #fff)" d="M21 17.417c-0.198 0-0.391 0.059-0.556 0.169s-0.293 0.266-0.368 0.449c-0.076 0.183-0.096 0.384-0.057 0.578s0.134 0.372 0.274 0.512c0.14 0.14 0.318 0.235 0.512 0.274s0.395 0.019 0.578-0.057c0.183-0.076 0.339-0.204 0.449-0.368s0.169-0.358 0.169-0.556c0-0.265-0.105-0.52-0.293-0.707s-0.442-0.293-0.707-0.293zM21 18.917c-0.099 0-0.196-0.029-0.278-0.084s-0.146-0.133-0.184-0.224c-0.038-0.091-0.048-0.192-0.028-0.289s0.067-0.186 0.137-0.256c0.070-0.070 0.159-0.118 0.256-0.137s0.198-0.009 0.289 0.028c0.091 0.038 0.169 0.102 0.224 0.184s0.084 0.179 0.084 0.278c0 0.133-0.053 0.26-0.146 0.354s-0.221 0.146-0.354 0.146z"></path>
<path fill="#fff" style="fill: var(--color2, #fff)" d="M13.75 18.667h4.5v0.5h-4.5v-0.5z"></path>
<path fill="#fff" style="fill: var(--color2, #fff)" d="M13.75 17.667h4.5v0.5h-4.5v-0.5z"></path>
<path fill="#fff" style="fill: var(--color2, #fff)" d="M15.25 13.917h1.5v0.5h-1.5v-0.5z"></path>
<path fill="#fff" style="fill: var(--color2, #fff)" d="M23.5 16.167v-0.5c-0.001-0.199-0.080-0.389-0.22-0.53s-0.331-0.22-0.53-0.22h-0.99l-0.517-1.815-0.155-0.617c-0.041-0.162-0.134-0.306-0.266-0.409s-0.294-0.159-0.461-0.159h-2.11v-1c-0-0.132-0.053-0.259-0.147-0.353s-0.221-0.146-0.353-0.147h-3.5c-0.132 0-0.259 0.053-0.353 0.147s-0.146 0.221-0.147 0.353v1h-2.11c-0.167 0-0.33 0.056-0.461 0.159s-0.225 0.247-0.266 0.409l-0.152 0.615-0.52 1.818h-0.99c-0.199 0.001-0.389 0.080-0.53 0.22s-0.22 0.331-0.22 0.53v0.5c0 0.127 0.033 0.251 0.095 0.362s0.15 0.204 0.258 0.271c-0.226 0.232-0.353 0.543-0.353 0.868v3c0 0.105 0.023 0.209 0.066 0.304s0.106 0.181 0.184 0.251v0.945c0.001 0.199 0.080 0.389 0.22 0.53s0.331 0.22 0.53 0.22h2c0.199-0.001 0.389-0.080 0.53-0.22s0.22-0.331 0.22-0.53v-0.75h7.5v0.75c0.001 0.199 0.080 0.389 0.22 0.53s0.331 0.22 0.53 0.22h2c0.199-0.001 0.389-0.080 0.53-0.22s0.22-0.331 0.22-0.53v-0.945c0.078-0.070 0.141-0.155 0.184-0.251s0.066-0.199 0.066-0.304v-3c0-0.324-0.127-0.635-0.352-0.868 0.107-0.067 0.196-0.16 0.258-0.271s0.094-0.235 0.095-0.362zM14.25 10.917h3.5v1h-3.5v-1zM11.398 12.607c0.013-0.054 0.045-0.102 0.088-0.137s0.098-0.053 0.154-0.053h8.72c0.056 0 0.11 0.019 0.154 0.053s0.075 0.083 0.088 0.137l0.078 0.31h-9.36l0.078-0.31zM11.187 13.417h9.625l0.855 3h-7.19c-0.059-0.349-0.239-0.667-0.51-0.895s-0.613-0.354-0.968-0.354-0.697 0.126-0.968 0.354c-0.27 0.229-0.451 0.546-0.51 0.895h-1.19l0.855-3zM13.965 16.417h-1.93c0.055-0.215 0.179-0.405 0.354-0.541s0.39-0.21 0.611-0.21 0.436 0.074 0.611 0.21c0.175 0.136 0.299 0.326 0.354 0.541zM9 15.667c0-0.066 0.026-0.13 0.073-0.177s0.11-0.073 0.177-0.073h0.848l-0.285 1h-0.563c-0.066 0-0.13-0.026-0.177-0.073s-0.073-0.11-0.073-0.177v-0.5zM11.75 22.167c0 0.066-0.026 0.13-0.073 0.177s-0.11 0.073-0.177 0.073h-2c-0.066 0-0.13-0.026-0.177-0.073s-0.073-0.11-0.073-0.177v-0.75h2.5v0.75zM22.75 22.167c0 0.066-0.026 0.13-0.073 0.177s-0.11 0.073-0.177 0.073h-2c-0.066 0-0.13-0.026-0.177-0.073s-0.073-0.11-0.073-0.177v-0.75h2.5v0.75zM23 20.667c0 0.066-0.026 0.13-0.073 0.177s-0.11 0.073-0.177 0.073h-13.5c-0.066 0-0.13-0.026-0.177-0.073s-0.073-0.11-0.073-0.177v-0.25h14v0.25zM23 19.917h-14v-2.25c0.001-0.199 0.080-0.389 0.22-0.53s0.331-0.22 0.53-0.22h12.5c0.199 0.001 0.389 0.080 0.53 0.22s0.22 0.331 0.22 0.53v2.25zM23 16.167c0 0.066-0.026 0.13-0.073 0.177s-0.11 0.073-0.177 0.073h-0.563l-0.285-1h0.847c0.066 0 0.13 0.026 0.177 0.073s0.073 0.11 0.073 0.177v0.5z"></path>
</symbol>
<symbol id="customization" viewBox="0 0 32 32">
<path fill="#b6c4cf" style="fill: var(--color5, #b6c4cf)" d="M32 17.823v-3.646c0-0.715-0.579-1.294-1.294-1.294h-1.394c-0.558 0-1.052-0.357-1.227-0.886-0.195-0.59-0.432-1.16-0.708-1.708-0.251-0.499-0.155-1.102 0.24-1.497l0.986-0.987c0.505-0.505 0.505-1.325 0-1.83l-2.578-2.578c-0.505-0.505-1.325-0.505-1.83 0l-0.986 0.987c-0.395 0.395-0.998 0.491-1.497 0.24-0.548-0.276-1.118-0.513-1.708-0.708-0.529-0.175-0.886-0.67-0.886-1.227v-1.394c0-0.715-0.579-1.294-1.294-1.294h-3.646c-0.715 0-1.294 0.579-1.294 1.294v1.394c0 0.558-0.357 1.052-0.887 1.227-0.59 0.195-1.16 0.432-1.708 0.708-0.499 0.251-1.102 0.155-1.497-0.24l-0.987-0.987c-0.505-0.505-1.325-0.505-1.83 0l-2.578 2.578c-0.505 0.505-0.505 1.325 0 1.83l0.987 0.986c0.395 0.395 0.491 0.998 0.24 1.497-0.276 0.548-0.513 1.118-0.708 1.708-0.124 0.374-0.407 0.662-0.76 0.799-0.146 0.057-0.24 0.152-0.404 0.152h-1.394c-0.715 0-1.294 0.579-1.294 1.294v3.517c0 0.715 0.579 1.294 1.294 1.294h1.394c0.558 0 1.052 0.422 1.227 0.951 0.195 0.59 0.432 1.16 0.708 1.708 0.251 0.499 0.155 1.102-0.24 1.497l-0.922 0.986c-0.505 0.505-0.505 1.325 0 1.83l2.449 2.449c0.505 0.505 1.325 0.505 1.83 0l0.986-0.986c0.395-0.395 0.998-0.491 1.497-0.24 0.548 0.276 1.247 0.577 1.837 0.772 0.529 0.175 0.886 0.67 0.886 1.227v1.394c0 0.715 0.579 1.294 1.294 1.294h3.453c0.715 0 1.294-0.579 1.294-1.294v-1.394c0-0.164 0.095-0.257 0.152-0.404 0.137-0.352 0.425-0.636 0.799-0.76 0.59-0.195 1.16-0.432 1.708-0.708 0.499-0.251 1.102-0.155 1.497 0.24l0.986 0.986c0.505 0.505 1.325 0.505 1.83 0l2.578-2.578c0.505-0.505 0.505-1.325 0-1.83l-0.986-0.986c-0.395-0.395-0.491-0.998-0.24-1.497 0.276-0.548 0.513-1.118 0.708-1.708 0.175-0.529 0.67-0.886 1.227-0.886h1.394c0.715 0 1.294-0.579 1.294-1.294z"></path>
<path fill="#9facba" style="fill: var(--color6, #9facba)" d="M19.204 28.844c-0.057 0.146-0.088 0.305-0.088 0.468v1.394c0 0.715-0.579 1.294-1.294 1.294h-3.646c-0.715 0-1.294-0.58-1.294-1.294v-1.394c0-0.558-0.357-1.053-0.887-1.228-0.589-0.195-1.16-0.432-1.708-0.708-0.499-0.251-1.102-0.155-1.497 0.24l-0.986 0.986c-0.505 0.505-1.325 0.505-1.83 0l-2.578-2.577c-0.505-0.505-0.505-1.325 0-1.83l0.987-0.986c0.395-0.395 0.491-0.998 0.24-1.497-0.276-0.548-0.513-1.118-0.708-1.708-0.175-0.529-0.67-0.887-1.228-0.887h-1.394c-0.715 0-1.294-0.579-1.294-1.294v-3.646c0-0.715 0.579-1.294 1.294-1.294h1.394c0.164 0 0.322-0.031 0.468-0.088-0.001 0.081-0.002 0.162-0.002 0.243 0 8.73 7.077 15.808 15.807 15.808 0.081 0 0.162-0.001 0.243-0.002z"></path>
<path fill="#9facba" style="fill: var(--color6, #9facba)" d="M16 26.624c5.867 0 10.624-4.756 10.624-10.624s-4.756-10.624-10.624-10.624c-5.867 0-10.624 4.756-10.624 10.624s4.756 10.624 10.624 10.624z"></path>
<path fill="#f8f7f7" style="fill: var(--color7, #f8f7f7)" d="M16 24.37c4.623 0 8.37-3.747 8.37-8.37s-3.747-8.37-8.37-8.37c-4.623 0-8.37 3.747-8.37 8.37s3.747 8.37 8.37 8.37z"></path>
</symbol>
<symbol id="decor" viewBox="0 0 12 32">
<path fill="#f8f7f7" style="fill: var(--color7, #f8f7f7)" d="M16 24.37c4.623 0 8.37-3.747 8.37-8.37s-3.747-8.37-8.37-8.37c-4.623 0-8.37 3.747-8.37 8.37s3.747 8.37 8.37 8.37z"></path>
</symbol>
<symbol id="destination" viewBox="0 0 31 32">
<path fill="#f0bb1f" style="fill: var(--color8, #f0bb1f)" d="M8.667 0h14c4.786 0 8.667 3.88 8.667 8.667v14.667c0 4.786-3.88 8.667-8.667 8.667h-14c-4.786 0-8.667-3.88-8.667-8.667v-14.667c0-4.786 3.88-8.667 8.667-8.667z"></path>
<path fill="#fff" style="fill: var(--color2, #fff)" d="M9.030 11.65c-0.198 0-0.359-0.162-0.363-0.359v-2.261c0-0.201 0.162-0.363 0.363-0.363h2.261c0.198 0 0.359 0.162 0.359 0.363v0.787h8.699v-0.787c0-0.198 0.162-0.359 0.359-0.363h2.261c0.198 0 0.359 0.162 0.363 0.363v2.261c0 0.198-0.162 0.359-0.363 0.359h-0.787v8.699h0.787c0.198 0 0.359 0.162 0.363 0.359v2.261c0 0.198-0.162 0.359-0.363 0.363h-2.261c-0.198 0-0.359-0.162-0.359-0.363v-0.787h-8.699v0.787c0 0.198-0.162 0.359-0.359 0.363h-2.261c-0.198 0-0.359-0.162-0.363-0.363v-2.261c0-0.198 0.162-0.359 0.363-0.359h0.787v-8.699h-0.787zM22.614 10.931v-1.546h-1.546v1.546h1.546zM21.069 22.614h1.546v-1.546h-1.546v1.546zM11.65 20.709v0.755h8.699v-0.755c0-0.198 0.162-0.359 0.359-0.359h0.755v-8.699h-0.755c-0.198 0-0.359-0.162-0.359-0.359v-0.755h-8.699v0.755c0 0.198-0.162 0.359-0.359 0.359h-0.755v8.699h0.755c0.198 0 0.359 0.162 0.359 0.359zM9.386 21.069v1.546h1.546v-1.546h-1.546zM10.931 10.931v-1.546h-1.546v1.546h1.546z"></path>
</symbol>
<symbol id="drop-arrow" viewBox="0 0 53 32">
<path stroke-linejoin="miter" stroke-linecap="butt" stroke-miterlimit="4" stroke-width="5.3333" d="M2.667 2.667l24 24 24-24"></path>
</symbol>
<symbol id="expedia" viewBox="0 0 32 32">
<path d="M2.84 11.574c1.188-0.311 2.509 0.042 3.438 0.921 0.268 0.253 0.763 0.925 0.763 1.034 0 0.026-0.126 0.073-0.28 0.104s-0.534 0.125-0.844 0.209c-0.564 0.153-0.564 0.153-0.7 0.049-0.075-0.057-0.558-0.471-1.073-0.918-0.832-0.722-1.156-0.938-1.156-0.769 0 0.024 0.275 0.411 0.611 0.86 0.588 0.784 0.785 1.137 0.688 1.229-0.025 0.024-0.238 0.095-0.473 0.158-0.447 0.12-0.794 0.235-2.584 0.854-0.6 0.208-1.122 0.365-1.16 0.351-0.162-0.062-0.041-1.167 0.202-1.843 0.125-0.346 0.5-0.919 0.81-1.235 0.497-0.508 1.034-0.814 1.759-1.004zM25.37 13.545c-0.423 0.165-0.41 0.135-0.41 1.011v0.783l-0.6-0.003c-0.551-0.003-0.622 0.008-0.87 0.139-1.388 0.733-1.146 2.896 0.353 3.148 0.34 0.057 0.461 0.041 1.053-0.146 0.099-0.031 0.129-0.016 0.153 0.075 0.038 0.144 0.087 0.142 0.431-0.018l0.28-0.13v-2.483c0-1.952-0.014-2.482-0.067-2.48-0.037 0.001-0.182 0.047-0.323 0.103zM8.878 13.678l-0.131 0.131v2.16c0 1.492 0.019 2.201 0.060 2.292 0.102 0.224 0.26 0.249 1.46 0.234l1.12-0.014 0.092-0.189c0.051-0.104 0.108-0.266 0.127-0.36l0.034-0.171h-2.043l0.015-0.787 0.015-0.787 1.738-0.029-0.016-0.359-0.016-0.359-1.733-0.029v-1.115l1.776-0.029 0.097-0.188c0.054-0.103 0.113-0.265 0.132-0.36l0.035-0.172h-2.632l-0.131 0.131zM26.503 13.916c-0.332 0.332-0.13 0.804 0.345 0.804 0.194 0 0.259-0.026 0.349-0.14 0.172-0.219 0.149-0.511-0.054-0.681-0.222-0.187-0.441-0.181-0.64 0.018zM6.98 14.059c-0.126 0.067-0.647 0.229-1.257 0.391l-0.224 0.059-0.238 0.759c0.672-2.49 0.525-2.030 0.379-1.571l-0.809 2.95c-0.121 0.392-0.224 0.634-0.278 0.655-0.048 0.018-0.097 0.023-0.109 0.010s0.015-0.484 0.062-1.047c0.082-0.979 0.074-1.352-0.030-1.416-0.026-0.016-0.342 0.054-0.701 0.156-0.639 0.181-1.235 0.328-2.832 0.698-0.436 0.101-0.805 0.197-0.821 0.212-0.051 0.051 0.201 0.739 0.4 1.097 0.3 0.539 0.95 1.154 1.515 1.432 0.474 0.234 1.244 0.433 1.68 0.434 0.288 0.001 0.984-0.133 1.294-0.249 0.323-0.12 0.862-0.447 1.186-0.718 0.449-0.376 0.888-1.072 1.088-1.726 0.181-0.589 0.104-2.227-0.103-2.208-0.034 0.003-0.125 0.039-0.202 0.080zM16.679 15.337c-0.022 0.023-0.274 0.055-0.56 0.072l-0.519 0.030v5.013l0.16-0.017c0.088-0.010 0.268-0.071 0.4-0.137l0.24-0.12 0.015-0.77 0.015-0.77 0.519-0.003c0.452-0.002 0.561-0.022 0.851-0.154 0.686-0.311 1.015-0.877 0.961-1.653-0.032-0.453-0.171-0.785-0.444-1.062-0.325-0.328-0.567-0.426-1.115-0.451-0.264-0.012-0.498-0.003-0.521 0.019zM20.198 15.381c-0.746 0.277-1.156 0.938-1.087 1.752 0.052 0.619 0.38 1.107 0.909 1.352 0.501 0.232 1.040 0.22 1.747-0.037l0.314-0.115v-0.34c0-0.187-0.013-0.34-0.029-0.34s-0.119 0.046-0.23 0.103c-0.319 0.163-0.857 0.283-1.101 0.247-0.404-0.060-0.773-0.399-0.774-0.71l-0-0.12h2.238l0.035-0.138c0.059-0.236-0.020-0.715-0.168-1.018-0.108-0.221-0.211-0.336-0.434-0.484-0.271-0.18-0.325-0.195-0.755-0.211-0.306-0.011-0.531 0.008-0.665 0.058zM28.906 15.356c-0.36 0.11-0.806 0.489-0.973 0.83-0.327 0.665-0.201 1.57 0.282 2.040 0.471 0.457 1.306 0.575 1.784 0.25 0.106-0.072 0.203-0.131 0.217-0.131s0.024 0.072 0.024 0.16c0 0.194 0.050 0.198 0.413 0.029l0.28-0.13v-3.045h-0.336c-0.185 0-0.359 0.023-0.388 0.052-0.034 0.034-0.144 0.024-0.313-0.027-0.275-0.083-0.766-0.097-0.991-0.029zM31.477 15.547c-0.001 0.117 0.010 0.183 0.025 0.147s0.070-0.067 0.123-0.067c0.094 0 0.192-0.147 0.136-0.203-0.015-0.015-0.028 0-0.028 0.034 0 0.099-0.203 0.072-0.23-0.031-0.013-0.051-0.025 0.003-0.026 0.12zM11.947 15.465c0 0.028 0.067 0.13 0.15 0.227s0.349 0.421 0.592 0.721l0.442 0.546-0.525 0.645c-0.289 0.355-0.569 0.703-0.623 0.774l-0.098 0.129h0.791l0.417-0.507c0.229-0.279 0.431-0.505 0.449-0.504s0.212 0.228 0.432 0.504l0.4 0.502 0.493 0.003c0.444 0.002 0.588-0.039 0.443-0.129-0.095-0.059-1.23-1.468-1.23-1.527 0-0.033 0.24-0.346 0.533-0.696s0.533-0.659 0.533-0.688-0.165-0.051-0.368-0.051h-0.367l-0.359 0.44c-0.197 0.242-0.376 0.447-0.397 0.455s-0.192-0.172-0.379-0.4c-0.187-0.228-0.365-0.433-0.395-0.454-0.083-0.059-0.935-0.049-0.935 0.011zM26.425 15.478c-0.015 0.039-0.021 0.729-0.013 1.536l0.014 1.466 0.828 0.031-0.014-1.536-0.014-1.536-0.387-0.016c-0.282-0.011-0.395 0.003-0.414 0.054zM31.957 15.547c0.001 0.088 0.013 0.118 0.026 0.066s0.013-0.124-0.002-0.16c-0.015-0.036-0.026 0.007-0.024 0.094zM17.409 16.004c0.085 0.041 0.229 0.168 0.319 0.28 0.146 0.182 0.167 0.25 0.182 0.613 0.015 0.347-0.002 0.445-0.108 0.649-0.211 0.402-0.822 0.64-1.239 0.481l-0.137-0.052v-1.973l0.173-0.053c0.224-0.068 0.612-0.042 0.809 0.054zM24.775 15.971l0.185 0.077v0.855c0 0.964 0.013 0.934-0.461 1.073-0.617 0.18-1.087-0.252-1.084-0.995 0.004-0.775 0.695-1.288 1.361-1.010zM29.866 15.979c0.133 0.053 0.226 0.129 0.243 0.2 0.015 0.063 0.021 0.45 0.013 0.861l-0.015 0.747-0.24 0.123c-0.587 0.302-1.195-0.033-1.263-0.697-0.059-0.575 0.146-1.041 0.538-1.219 0.27-0.123 0.448-0.126 0.725-0.016zM21.072 16.029c0.183 0.095 0.368 0.368 0.368 0.544 0 0.119-0.008 0.12-0.746 0.12-0.507 0-0.747-0.019-0.747-0.059 0-0.127 0.181-0.429 0.313-0.523 0.249-0.177 0.567-0.209 0.812-0.083zM7.094 18.159c-0.052 0.062-0.086 0.068-0.141 0.021-0.057-0.048-0.073-0.038-0.073 0.047 0 0.134 0.157 0.132 0.259-0.004 0.089-0.12 0.049-0.177-0.045-0.064z"></path>
</symbol>
<symbol id="facebook" viewBox="0 0 33 32">
<path fill="#335bf5" style="fill: var(--color9, #335bf5)" d="M31.387 0h-29.44c-0.708 0-1.28 0.572-1.28 1.28v29.44c0 0.708 0.572 1.28 1.28 1.28h29.44c0.708 0 1.28-0.572 1.28-1.28v-29.44c0-0.708-0.572-1.28-1.28-1.28zM27.691 9.34h-2.556c-2.004 0-2.392 0.952-2.392 2.352v3.084h4.784l-0.624 4.828h-4.16v12.396h-4.988v-12.392h-4.172v-4.832h4.172v-3.56c0-4.132 2.524-6.384 6.212-6.384 1.768 0 3.284 0.132 3.728 0.192v4.316h-0.004z"></path>
</symbol>
<symbol id="google-play" viewBox="0 0 98 32">
<path fill="#080809" style="fill: var(--color1, #080809)" d="M16 0h65.829c8.837 0 16 7.163 16 16s-7.163 16-16 16h-65.829c-8.837 0-16-7.163-16-16s7.163-16 16-16z"></path>
<path fill="#2196f3" style="fill: var(--color10, #2196f3)" d="M26.064 15.544l-9.183 8.842c-0.43-0.294-0.685-0.783-0.681-1.303v-15.078c-0.005-0.521 0.251-1.010 0.681-1.303l9.183 8.842z"></path>
<path fill="#4caf50" style="fill: var(--color11, #4caf50)" d="M29.277 12.456l-3.213 3.089-9.183-8.842c0.035-0.027 0.071-0.052 0.108-0.075 0.485-0.294 1.091-0.304 1.586-0.025l10.702 5.853z"></path>
<path fill="#f0bb1f" style="fill: var(--color8, #f0bb1f)" d="M33.171 15.544c0.006 0.588-0.313 1.131-0.83 1.411l-3.064 1.677-3.213-3.089 3.213-3.089 3.064 1.677c0.517 0.28 0.836 0.823 0.83 1.411z"></path>
<path fill="#f15a2b" style="fill: var(--color12, #f15a2b)" d="M29.277 18.633l-10.702 5.853c-0.495 0.274-1.099 0.265-1.586-0.025-0.037-0.023-0.073-0.048-0.108-0.075l9.183-8.842 3.213 3.089z"></path>
<path fill="#fff" style="fill: var(--color2, #fff)" d="M43.908 10.862h-2.567v1.024h1.368c-0.183 0.49-0.629 0.79-1.309 0.79-0.995 0-1.609-0.636-1.609-1.507 0-0.9 0.644-1.536 1.507-1.536 0.578 0 1.039 0.263 1.251 0.6l0.995-0.571c-0.432-0.688-1.258-1.17-2.238-1.17-1.507 0-2.684 1.185-2.684 2.67 0 1.47 1.156 2.655 2.765 2.655 1.434 0 2.523-0.951 2.523-2.516v-0.439z"></path>
<path fill="#fff" style="fill: var(--color2, #fff)" d="M45.372 12.588v-0.907h1.829v-1.112h-1.829v-0.848h2.011v-1.126h-3.182v5.12h3.218v-1.126h-2.048z"></path>
<path fill="#fff" style="fill: var(--color2, #fff)" d="M51.152 8.594h-3.803v1.126h1.317v3.994h1.17v-3.994h1.317v-1.126z"></path>
<path fill="#fff" style="fill: var(--color2, #fff)" d="M52.762 8.594v5.12h1.17v-5.12h-1.17z"></path>
<path fill="#fff" style="fill: var(--color2, #fff)" d="M57.884 8.594h-3.803v1.126h1.317v3.994h1.17v-3.994h1.317v-1.126z"></path>
<path fill="#fff" style="fill: var(--color2, #fff)" d="M61.936 13.817c1.47 0 2.662-1.156 2.662-2.662s-1.192-2.662-2.662-2.662c-1.47 0-2.662 1.156-2.662 2.662s1.192 2.662 2.662 2.662zM61.936 12.676c-0.834 0-1.492-0.607-1.492-1.521s0.658-1.521 1.492-1.521c0.834 0 1.492 0.607 1.492 1.521s-0.658 1.521-1.492 1.521z"></path>
<path fill="#fff" style="fill: var(--color2, #fff)" d="M67.744 8.594v2.779l-1.975-2.779h-0.878v5.12h1.17v-2.779l1.975 2.779h0.878v-5.12h-1.17z"></path>
<path fill="#fff" style="fill: var(--color2, #fff)" d="M43.908 19.558v0.198c0 0.639-0.227 1.178-0.68 1.616-0.453 0.434-1.051 0.651-1.792 0.651-0.78 0-1.424-0.254-1.931-0.761-0.507-0.512-0.761-1.139-0.761-1.88s0.251-1.365 0.753-1.872c0.502-0.512 1.139-0.768 1.909-0.768 0.468 0 0.897 0.112 1.287 0.336 0.395 0.224 0.7 0.524 0.914 0.9l-0.344 0.205c-0.171-0.322-0.424-0.58-0.761-0.775-0.332-0.195-0.697-0.293-1.097-0.293-0.663 0-1.209 0.219-1.638 0.658-0.424 0.434-0.636 0.97-0.636 1.609s0.215 1.178 0.644 1.616c0.429 0.434 0.983 0.651 1.66 0.651 0.6 0 1.085-0.163 1.456-0.49s0.578-0.739 0.622-1.236h-2.172v-0.366h2.567z"></path>
<path fill="#fff" style="fill: var(--color2, #fff)" d="M49.1 21.255c-0.512 0.512-1.136 0.768-1.872 0.768s-1.36-0.256-1.872-0.768c-0.512-0.517-0.768-1.141-0.768-1.872s0.256-1.353 0.768-1.865c0.512-0.517 1.136-0.775 1.872-0.775s1.36 0.258 1.872 0.775c0.512 0.512 0.768 1.134 0.768 1.865s-0.256 1.356-0.768 1.872zM45.625 20.992c0.439 0.439 0.973 0.658 1.602 0.658s1.16-0.219 1.594-0.658c0.439-0.444 0.658-0.98 0.658-1.609s-0.219-1.163-0.658-1.602c-0.434-0.444-0.965-0.666-1.594-0.666s-1.163 0.222-1.602 0.666c-0.434 0.439-0.651 0.973-0.651 1.602s0.217 1.165 0.651 1.609z"></path>
<path fill="#fff" style="fill: var(--color2, #fff)" d="M55.071 21.255c-0.512 0.512-1.136 0.768-1.872 0.768s-1.36-0.256-1.872-0.768c-0.512-0.517-0.768-1.141-0.768-1.872s0.256-1.353 0.768-1.865c0.512-0.517 1.136-0.775 1.872-0.775s1.36 0.258 1.872 0.775c0.512 0.512 0.768 1.134 0.768 1.865s-0.256 1.356-0.768 1.872zM51.597 20.992c0.439 0.439 0.973 0.658 1.602 0.658s1.16-0.219 1.595-0.658c0.439-0.444 0.658-0.98 0.658-1.609s-0.219-1.163-0.658-1.602c-0.434-0.444-0.965-0.666-1.594-0.666s-1.163 0.222-1.602 0.666c-0.434 0.439-0.651 0.973-0.651 1.602s0.217 1.165 0.651 1.609z"></path>
<path fill="#fff" style="fill: var(--color2, #fff)" d="M61.693 19.558v0.198c0 0.639-0.227 1.178-0.68 1.616-0.453 0.434-1.051 0.651-1.792 0.651-0.78 0-1.424-0.254-1.931-0.761-0.507-0.512-0.761-1.139-0.761-1.88s0.251-1.365 0.753-1.872c0.502-0.512 1.139-0.768 1.909-0.768 0.468 0 0.897 0.112 1.287 0.336 0.395 0.224 0.7 0.524 0.914 0.9l-0.344 0.205c-0.171-0.322-0.424-0.58-0.761-0.775-0.332-0.195-0.697-0.293-1.097-0.293-0.663 0-1.209 0.219-1.638 0.658-0.424 0.434-0.636 0.97-0.636 1.609s0.215 1.178 0.644 1.616c0.429 0.434 0.983 0.651 1.66 0.651 0.6 0 1.085-0.163 1.456-0.49s0.578-0.739 0.622-1.236h-2.172v-0.366h2.567z"></path>
<path fill="#fff" style="fill: var(--color2, #fff)" d="M63.053 21.577h2.414v0.366h-2.801v-5.12h0.388v4.754z"></path>
<path fill="#fff" style="fill: var(--color2, #fff)" d="M66.66 21.577h2.56v0.366h-2.948v-5.12h2.911v0.366h-2.523v1.989h2.341v0.366h-2.341v2.033z"></path>
<path fill="#fff" style="fill: var(--color2, #fff)" d="M73.863 16.823c0.458 0 0.839 0.151 1.141 0.454s0.454 0.68 0.454 1.134c0 0.453-0.151 0.831-0.454 1.134-0.302 0.297-0.683 0.446-1.141 0.446h-1.353v1.953h-0.388v-5.12h1.741zM73.863 19.624c0.351 0 0.639-0.115 0.863-0.344 0.229-0.229 0.344-0.519 0.344-0.87 0-0.356-0.115-0.648-0.344-0.878-0.224-0.229-0.512-0.344-0.863-0.344h-1.353v2.436h1.353z"></path>
<path fill="#fff" style="fill: var(--color2, #fff)" d="M76.803 21.577h2.414v0.366h-2.801v-5.12h0.388v4.754z"></path>
<path fill="#fff" style="fill: var(--color2, #fff)" d="M83.61 21.943l-0.497-1.302h-2.567l-0.497 1.302h-0.41l1.99-5.12h0.41l1.982 5.12h-0.41zM80.692 20.275h2.282l-1.141-2.977-1.141 2.977z"></path>
<path fill="#fff" style="fill: var(--color2, #fff)" d="M87.663 16.823l-1.865 3.014v2.107h-0.388v-2.107l-1.865-3.014h0.439l1.624 2.64 1.616-2.64h0.439z"></path>
</symbol>
<symbol id="heart" viewBox="0 0 32 32">
<path fill="#4152ca" style="fill: var(--color13, #4152ca)" d="M29.383 3.927c-1.655-1.779-3.974-2.791-6.404-2.795-2.432 0.003-4.754 1.015-6.411 2.794l-0.565 0.597-0.565-0.597c-3.289-3.54-8.826-3.744-12.366-0.454-0.157 0.146-0.308 0.297-0.454 0.454-3.489 3.764-3.489 9.58 0 13.344l12.555 13.24c0.434 0.459 1.158 0.478 1.617 0.044 0.015-0.014 0.030-0.029 0.044-0.044l12.551-13.24c3.489-3.763 3.489-9.58-0-13.343zM27.728 15.695h-0.001l-11.725 12.366-11.726-12.366c-2.666-2.876-2.666-7.32 0-10.196 2.421-2.624 6.51-2.788 9.134-0.367 0.127 0.118 0.25 0.24 0.367 0.367l1.394 1.471c0.459 0.456 1.201 0.456 1.661 0l1.394-1.47c2.421-2.624 6.51-2.788 9.134-0.367 0.127 0.118 0.25 0.24 0.368 0.367 2.689 2.88 2.708 7.332 0 10.194z"></path>
</symbol>
<symbol id="instagram" viewBox="0 0 33 32">
<path fill="#e61f5a" style="fill: var(--color14, #e61f5a)" d="M16.669 7.796c-4.54 0-8.204 3.664-8.204 8.204s3.664 8.204 8.204 8.204c4.54 0 8.204-3.664 8.204-8.204s-3.664-8.204-8.204-8.204zM16.669 21.332c-2.936 0-5.332-2.396-5.332-5.332s2.396-5.332 5.332-5.332c2.936 0 5.332 2.396 5.332 5.332s-2.396 5.332-5.332 5.332zM25.209 5.548c-1.060 0-1.916 0.856-1.916 1.916s0.856 1.916 1.916 1.916c1.060 0 1.916-0.852 1.916-1.916 0-0.252-0.049-0.501-0.145-0.734s-0.237-0.444-0.415-0.622-0.389-0.319-0.622-0.415c-0.233-0.096-0.482-0.146-0.734-0.145zM32.661 16c0-2.208 0.020-4.396-0.104-6.6-0.124-2.56-0.708-4.832-2.58-6.704-1.876-1.876-4.144-2.456-6.704-2.58-2.208-0.124-4.396-0.104-6.6-0.104-2.208 0-4.396-0.020-6.6 0.104-2.56 0.124-4.832 0.708-6.704 2.58-1.876 1.876-2.456 4.144-2.58 6.704-0.124 2.208-0.104 4.396-0.104 6.6s-0.020 4.396 0.104 6.6c0.124 2.56 0.708 4.832 2.58 6.704 1.876 1.876 4.144 2.456 6.704 2.58 2.208 0.124 4.396 0.104 6.6 0.104 2.208 0 4.396 0.020 6.6-0.104 2.56-0.124 4.832-0.708 6.704-2.58 1.876-1.876 2.456-4.144 2.58-6.704 0.128-2.204 0.104-4.392 0.104-6.6zM29.141 25.432c-0.292 0.728-0.644 1.272-1.208 1.832-0.564 0.564-1.104 0.916-1.832 1.208-2.104 0.836-7.1 0.648-9.432 0.648s-7.332 0.188-9.436-0.644c-0.728-0.292-1.272-0.644-1.832-1.208-0.564-0.564-0.916-1.104-1.208-1.832-0.832-2.108-0.644-7.104-0.644-9.436s-0.188-7.332 0.644-9.436c0.292-0.728 0.644-1.272 1.208-1.832s1.104-0.916 1.832-1.208c2.104-0.832 7.104-0.644 9.436-0.644s7.332-0.188 9.436 0.644c0.728 0.292 1.272 0.644 1.832 1.208 0.564 0.564 0.916 1.104 1.208 1.832 0.832 2.104 0.644 7.104 0.644 9.436s0.188 7.328-0.648 9.432z"></path>
</symbol>
<symbol id="jetstar" viewBox="0 0 50 32">
<path d="M38.351 11.848c-0.24 0.315-0.415 0.537-0.593 0.757l0.058-0.075-1.34 1.645h-3.877l1.189 1.207c0.654 0.664 1.189 1.258 1.189 1.321-0.001 0.107-0.206 0.396-1.739 2.451-0.34 0.455-0.603 0.842-0.586 0.859 0.032 0.031 1.576-0.724 1.654-0.81 0.023-0.025 0.325-0.189 0.671-0.363 0.527-0.263 0.87-0.447 1.21-0.638l-0.161 0.083c0.59-0.333 0.818-0.32 1.242 0.074 0.194 0.18 0.404 0.365 0.619 0.545l0.026 0.021c0.161 0.131 0.334 0.277 0.384 0.324s0.348 0.311 0.663 0.588c0.315 0.277 0.642 0.569 0.728 0.65 0.209 0.198 0.27 0.185 0.204-0.042-0.051-0.176-0.124-0.534-0.309-1.51-0.041-0.219-0.114-0.597-0.162-0.839-0.151-0.767-0.235-1.428-0.194-1.523 0.022-0.050 0.726-0.535 1.565-1.077s1.62-1.060 1.735-1.152l0.21-0.166-1.761-0.003c-0.969-0.002-1.816-0.038-1.884-0.080-0.139-0.088-0.242-0.913-0.25-1.996-0.003-0.38-0.038-0.692-0.079-0.692s-0.226 0.198-0.412 0.44zM9.643 13.606c-0.002 0.059-0 0.911 0.003 1.892 0.004 1.023-0.032 1.926-0.084 2.117-0.208 0.772-1.007 0.605-1.007-0.211 0-0.439-0.090-0.484-0.884-0.443l-0.5 0.026-0.025 0.494c-0.042 0.815 0.34 1.509 0.979 1.778 0.454 0.191 1.609 0.157 2.071-0.060 0.58-0.273 0.959-0.887 0.959-1.553 0-0.154 0.038-0.281 0.084-0.281s0.085 0.104 0.086 0.231c0.005 0.612 0.726 1.468 1.413 1.678 0.454 0.138 1.479 0.131 1.891-0.012 0.451-0.157 0.857-0.499 1.057-0.89 0.092-0.181 0.168-0.349 0.168-0.374s-0.312-0.045-0.693-0.045c-0.578 0-0.709 0.025-0.788 0.152-0.052 0.084-0.245 0.197-0.429 0.252-0.429 0.129-0.881-0.040-1.066-0.398-0.248-0.48-0.185-0.502 1.494-0.527l1.523-0.023 0.026-0.321c0.015-0.177-0.033-0.495-0.105-0.707s-0.132-0.398-0.132-0.412 0.17-0.027 0.378-0.027h0.377v1.162c0 1.574 0.154 1.978 0.831 2.181 0.422 0.126 1.406 0.126 1.485-0.001 0.033-0.054 0.055-0.233 0.049-0.399s0.024-0.356 0.066-0.424c0.062-0.099 0.093-0.080 0.16 0.097 0.098 0.259 0.517 0.581 0.939 0.723 0.165 0.055 0.626 0.101 1.025 0.101 1.318 0 2.072-0.535 2.072-1.468 0-0.808-0.413-1.151-1.666-1.382-0.63-0.116-0.907-0.231-0.973-0.402-0.080-0.209 0.122-0.356 0.489-0.353 0.368 0.003 0.573 0.113 0.665 0.358 0.049 0.129 0.143 0.147 0.666 0.126l0.609-0.025 0.027-0.283c0.022-0.227-0.028-0.341-0.252-0.573-0.435-0.451-0.75-0.554-1.705-0.558-0.703-0.002-0.902 0.028-1.229 0.187-0.555 0.269-0.68 0.44-0.726 0.991-0.070 0.842 0.318 1.241 1.41 1.449 0.816 0.156 1.083 0.252 1.175 0.424 0.112 0.21 0.11 0.219-0.1 0.415-0.34 0.317-1.035 0.159-1.186-0.269-0.043-0.123-0.159-0.147-0.719-0.147-0.587 0-0.674 0.020-0.719 0.162-0.065 0.206-0.354 0.256-0.652 0.113l-0.231-0.111v-2.084l0.881-0.051 0.004-0.4c0.002-0.22-0.017-0.434-0.043-0.476s-0.217-0.088-0.424-0.103l-0.376-0.027-0.042-0.671-0.042-0.671h-1.426l-0.042 0.671-0.042 0.671-0.314 0.026c-0.309 0.026-0.314 0.032-0.316 0.377-0.002 0.534-0.092 0.601-0.359 0.267-0.765-0.959-2.392-1.055-3.364-0.198-0.387 0.34-0.721 0.938-0.721 1.289 0 0.116-0.037 0.211-0.082 0.211-0.050 0-0.091-0.648-0.105-1.657l-0.023-1.656-0.734-0.024c-0.554-0.018-0.735 0.002-0.737 0.084zM23.797 13.557c-0.033 0.033-0.059 0.332-0.059 0.665 0 0.646-0.040 0.708-0.467 0.708-0.229 0-0.317 0.22-0.273 0.68 0.026 0.268 0.047 0.286 0.378 0.31l0.351 0.026 0.026 1.358c0.024 1.232 0.043 1.382 0.207 1.612 0.211 0.295 0.714 0.46 1.407 0.46 0.594 0 0.719-0.056 0.72-0.323 0.002-0.379 0.121-0.472 0.284-0.223 0.258 0.394 0.616 0.546 1.288 0.546 0.45 0 0.71-0.047 0.995-0.181 0.355-0.167 0.393-0.17 0.465-0.042 0.063 0.112 0.209 0.14 0.736 0.14h0.658l-0.034-1.070c-0.083-2.576-0.076-2.511-0.32-2.831-0.34-0.446-0.699-0.565-1.725-0.57-0.753-0.004-0.939 0.023-1.281 0.188-0.457 0.22-0.722 0.545-0.791 0.969l-0.048 0.294h0.685c0.575 0 0.693-0.024 0.739-0.147 0.087-0.232 0.293-0.351 0.613-0.354 0.52-0.005 0.862 0.403 0.552 0.661-0.064 0.053-0.468 0.153-0.896 0.223s-0.936 0.195-1.128 0.28c-0.408 0.18-0.71 0.563-0.712 0.901-0.002 0.313-0.079 0.407-0.334 0.404-0.618-0.008-0.695-0.182-0.655-1.465l0.025-0.797 0.839-0.084 0.050-0.965h-0.371c-0.204 0-0.412-0.049-0.461-0.108s-0.101-0.371-0.115-0.692l-0.025-0.584-0.633-0.024c-0.348-0.013-0.66 0.002-0.692 0.035zM30.737 15.037c-0.022 0.058-0.031 1.030-0.018 2.16l0.022 2.053 0.664 0.025c0.474 0.017 0.683-0.006 0.732-0.084 0.038-0.060 0.070-0.638 0.070-1.285 0.001-1.287 0.047-1.439 0.505-1.676 0.133-0.069 0.376-0.125 0.54-0.125s0.298-0.030 0.298-0.066c0-0.101-0.873-0.941-0.978-0.941-0.051 0-0.139 0.056-0.196 0.125-0.127 0.154-0.252 0.089-0.252-0.13 0-0.148-0.063-0.163-0.674-0.163-0.467 0-0.686 0.033-0.714 0.106zM13.95 15.863c0.241 0.123 0.473 0.415 0.475 0.598 0.002 0.13-0.091 0.147-0.795 0.147-0.786 0-0.797-0.003-0.797-0.202 0-0.253 0.438-0.636 0.725-0.636 0.115 0 0.291 0.042 0.392 0.094zM29.022 17.567c0 0.285-0.147 0.642-0.318 0.772-0.205 0.156-0.771 0.141-0.955-0.024-0.185-0.167-0.2-0.473-0.030-0.614 0.161-0.134 0.779-0.325 1.072-0.332 0.19-0.005 0.231 0.031 0.231 0.199z"></path>
</symbol>
<symbol id="leaf" viewBox="0 0 32 32">
<path fill="#f5f5f5" style="fill: var(--color15, #f5f5f5)" d="M32 16c0 8.837-7.163 16-16 16s-16-7.163-16-16c0-8.837 7.163-16 16-16s16 7.163 16 16z"></path>
<path fill="#84829a" style="fill: var(--color3, #84829a)" d="M21.915 10.801c-0.328-0.096-8.348-0.895-11.165 2.911-1.248 1.686-1.266 3.997-0.063 6.868-0.305 0.634-0.573 1.301-0.79 2.006-0.066 0.214 0.054 0.441 0.267 0.507 0.040 0.012 0.080 0.018 0.12 0.018 0.173 0 0.333-0.112 0.387-0.286 2.147-6.941 9.124-10.299 11.263-11.147 0.208-0.083 0.486-0.73-0.019-0.878z"></path>
<path fill="#84829a" style="fill: var(--color3, #84829a)" d="M11.975 21.449c1.161 0.487 2.322 0.737 3.402 0.737 0.971 0 1.876-0.2 2.655-0.604 1.57-0.814 2.529-2.372 2.774-4.505 0.25-2.174 0.56-3.535 0.819-4.368-2.307 1.064-7.253 3.822-9.651 8.74z"></path>
</symbol>
<symbol id="logo" viewBox="0 0 106 32">
<path fill="#f1a501" style="fill: var(--color16, #f1a501)" d="M68.571 26.514l8.686 2.743 7.314-7.314 9.143 6.4 9.6-1.829-4.114-13.257-14.629 4.571-8.229-4.571-8.686 1.371 0.914 11.886z"></path>
<path fill="#000" style="fill: var(--color17, #000)" d="M0.841 22.001v-1.977l5.594-1.009v2.734c0.028 1.486 0.407 2.608 1.136 3.365 0.757 0.729 1.752 1.093 2.986 1.093 1.206 0 2.159-0.392 2.86-1.178 0.729-0.785 1.094-1.837 1.094-3.154v-20.608h5.804v20.608c0 2.748-0.911 5.075-2.734 6.982s-4.15 2.86-6.982 2.86c-2.944 0-5.313-0.883-7.108-2.65-1.766-1.794-2.65-4.15-2.65-7.066z"></path>
<path fill="#000" style="fill: var(--color17, #000)" d="M21.647 25.45c0-1.766 0.575-3.182 1.724-4.248s2.636-1.738 4.458-2.019l5.089-0.757c1.037-0.14 1.556-0.631 1.556-1.472 0-0.785-0.308-1.43-0.925-1.935-0.589-0.505-1.444-0.757-2.566-0.757-1.178 0-2.117 0.322-2.818 0.967-0.673 0.645-1.051 1.444-1.136 2.397l-4.963-1.051c0.196-1.794 1.079-3.379 2.65-4.752s3.645-2.061 6.224-2.061c3.084 0 5.355 0.743 6.813 2.229 1.458 1.458 2.187 3.336 2.187 5.636v10.178c0 1.234 0.084 2.327 0.252 3.28h-5.131c-0.14-0.617-0.21-1.444-0.21-2.481-1.318 2.047-3.351 3.070-6.098 3.070-2.131 0-3.855-0.617-5.173-1.851-1.29-1.234-1.935-2.692-1.935-4.374zM29.933 27.511c1.318 0 2.397-0.365 3.238-1.093 0.869-0.757 1.304-1.991 1.304-3.701v-0.925l-4.668 0.715c-1.71 0.252-2.566 1.122-2.566 2.608 0 0.673 0.238 1.248 0.715 1.724 0.477 0.449 1.136 0.673 1.977 0.673z"></path>
<path fill="#000" style="fill: var(--color17, #000)" d="M61.858 0.636v26.706c0 1.374 0.056 2.622 0.168 3.743h-5.341c-0.14-0.701-0.21-1.5-0.21-2.397-0.477 0.869-1.234 1.57-2.271 2.103-1.009 0.533-2.187 0.799-3.533 0.799-2.944 0-5.369-1.023-7.276-3.070-1.879-2.075-2.818-4.682-2.818-7.823 0-3.056 0.925-5.622 2.776-7.696 1.879-2.075 4.262-3.112 7.15-3.112 2.972 0 4.921 0.855 5.846 2.566v-11.818h5.51zM46.213 20.698c0 1.822 0.477 3.266 1.43 4.332 0.953 1.037 2.187 1.556 3.701 1.556 1.486 0 2.706-0.533 3.659-1.598s1.43-2.509 1.43-4.332c0-1.794-0.477-3.196-1.43-4.206-0.953-1.037-2.173-1.556-3.659-1.556s-2.72 0.519-3.701 1.556c-0.953 1.037-1.43 2.453-1.43 4.248z"></path>
<path fill="#000" style="fill: var(--color17, #000)" d="M70.114 25.072c1.037 1.037 2.285 1.556 3.743 1.556s2.692-0.519 3.701-1.556c1.037-1.037 1.556-2.481 1.556-4.332s-0.519-3.294-1.556-4.332c-1.009-1.037-2.243-1.556-3.701-1.556s-2.706 0.519-3.743 1.556c-1.009 1.037-1.514 2.481-1.514 4.332s0.505 3.294 1.514 4.332zM66.076 12.875c2.075-2.075 4.668-3.112 7.781-3.112s5.692 1.037 7.739 3.112c2.075 2.075 3.112 4.696 3.112 7.865s-1.037 5.79-3.112 7.865c-2.047 2.075-4.626 3.112-7.739 3.112s-5.706-1.037-7.781-3.112c-2.047-2.075-3.070-4.696-3.070-7.865s1.023-5.79 3.070-7.865z"></path>
<path fill="#000" style="fill: var(--color17, #000)" d="M91.31 25.072c1.038 1.037 2.285 1.556 3.743 1.556s2.692-0.519 3.701-1.556c1.038-1.037 1.556-2.481 1.556-4.332s-0.518-3.294-1.556-4.332c-1.009-1.037-2.243-1.556-3.701-1.556s-2.705 0.519-3.743 1.556c-1.009 1.037-1.514 2.481-1.514 4.332s0.505 3.294 1.514 4.332zM87.272 12.875c2.075-2.075 4.668-3.112 7.781-3.112s5.691 1.037 7.739 3.112c2.075 2.075 3.112 4.696 3.112 7.865s-1.038 5.79-3.112 7.865c-2.047 2.075-4.626 3.112-7.739 3.112s-5.706-1.037-7.781-3.112c-2.047-2.075-3.070-4.696-3.070-7.865s1.023-5.79 3.070-7.865z"></path>
</symbol>
<symbol id="map" viewBox="0 0 32 32">
<path fill="#f5f5f5" style="fill: var(--color15, #f5f5f5)" d="M32 16c0 8.837-7.163 16-16 16s-16-7.163-16-16c0-8.837 7.163-16 16-16s16 7.163 16 16z"></path>
<path fill="#84829a" style="fill: var(--color3, #84829a)" d="M20.89 9.778c-0.069 0-0.137 0.016-0.199 0.047l-3.368 1.684-3.808-1.693c-0.006-0.003-0.013-0.003-0.020-0.006-0.017-0.006-0.035-0.012-0.052-0.016s-0.036-0.008-0.054-0.011c-0.036-0.003-0.072-0.003-0.108 0-0.018 0.003-0.036 0.006-0.054 0.011s-0.035 0.010-0.052 0.016c-0.007 0.003-0.014 0.003-0.020 0.006l-4 1.778c-0.161 0.071-0.264 0.231-0.264 0.406v9.778c0 0.15 0.076 0.291 0.202 0.372s0.285 0.095 0.423 0.034l3.82-1.698 3.819 1.698c0.007 0.003 0.014 0 0.020 0.004 0.108 0.048 0.231 0.045 0.336-0.008 0.007-0.003 0.015 0 0.022-0.005l3.555-1.778c0.151-0.075 0.246-0.229 0.246-0.398v-9.778c0-0.245-0.199-0.445-0.444-0.445zM12.89 19.711l-3.111 1.383v-8.805l3.111-1.383v8.805zM16.89 21.094l-3.111-1.383v-8.805l3.111 1.383v8.805zM20.445 19.725l-2.667 1.333v-8.784l2.667-1.333v8.784z"></path>
</symbol>
<symbol id="mob-menu" viewBox="0 0 55 32">
<path fill="#737373" style="fill: var(--color18, #737373)" d="M1.306 0h52.245v5.224h-52.245v-5.224zM14.368 13.061h39.184v5.224h-39.184v-5.224zM30.694 26.122h22.857v5.224h-22.857v-5.224z"></path>
</symbol>
<symbol id="nav-arrow" viewBox="0 0 32 32">
<path d="M28.909 4.417l-11 24c-0.092 0.201-0.248 0.366-0.444 0.469s-0.42 0.138-0.638 0.1c-0.218-0.038-0.417-0.147-0.566-0.311s-0.24-0.371-0.258-0.592l-0.93-11.157-11.157-0.93c-0.22-0.018-0.428-0.109-0.592-0.258s-0.272-0.348-0.311-0.566c-0.038-0.218-0.003-0.442 0.1-0.638s0.268-0.352 0.469-0.444l24-11c0.186-0.085 0.393-0.111 0.594-0.075s0.386 0.133 0.53 0.277 0.241 0.329 0.277 0.53c0.036 0.201 0.010 0.408-0.075 0.594l0 0z"></path>
</symbol>
<symbol id="plane" viewBox="0 0 35 32">
<path fill="#d5d6db" style="fill: var(--color19, #d5d6db)" d="M19.984 18.046c-0.282 0.063-0.557 0.18-0.808 0.344-0.653 0.416-1.032 1.009-0.848 1.326s0.863 0.235 1.515-0.18c0.254-0.158 0.479-0.36 0.663-0.593 0.085-0.113 0.1-0.253 0.039-0.358l-0.239-0.411c-0.061-0.105-0.187-0.155-0.322-0.128z"></path>
<path fill="#d5d6db" style="fill: var(--color19, #d5d6db)" d="M18.345 12.437c-0.205 0.046-0.404 0.131-0.586 0.249-0.473 0.301-0.749 0.732-0.615 0.961s0.626 0.17 1.099-0.131c0.184-0.114 0.348-0.261 0.481-0.43 0.062-0.082 0.073-0.183 0.028-0.259l-0.173-0.298c-0.044-0.076-0.136-0.113-0.233-0.093z"></path>
<path fill="#029bc5" style="fill: var(--color20, #029bc5)" d="M15.683 12.672c-0.046-0.005-0.094 0.007-0.136 0.034l-1.111 0.708c-0.093 0.059-0.13 0.173-0.083 0.254 0.011 0.019 0.026 0.034 0.043 0.047l2.739 1.888 3.706-2.361-5.158-0.569z"></path>
<path fill="#e1e6e9" style="fill: var(--color21, #e1e6e9)" d="M27.397 12.405l-10.085 6.348-5.966 2.374-3.043 0.605-0.335-0.569 16.809-10.379c0.501-0.311 1.059-0.501 1.618-0.553 0.245-0.021 0.486-0.013 0.719 0.024 0.207 0.031 0.402 0.092 0.582 0.179 0.2 0.099 0.581 0.111 0.705 0.309 0-0 0.292 0.909-1.005 1.66z"></path>
<path fill="#029bc5" style="fill: var(--color20, #029bc5)" d="M17.447 17.914l-4.363 6.955c-0.054 0.098-0.022 0.207 0.072 0.244 0.058 0.023 0.129 0.014 0.188-0.024l1.11-0.704c0.214-0.136 0.403-0.308 0.556-0.506l8.461-9.947-6.024 3.982z"></path>
<path fill="#029bc5" style="fill: var(--color20, #029bc5)" d="M6.438 17.681c-0.073-0.025-0.159-0.012-0.232 0.035l-0.918 0.585c-0.125 0.080-0.175 0.233-0.111 0.342 0.012 0.021 0.028 0.039 0.047 0.054l2.572 2.060 2.704-1.689-4.061-1.386z"></path>
<path fill="#029bc5" style="fill: var(--color20, #029bc5)" d="M8.657 21.128l-1.384 1.939c-0.020 0.028-0.016 0.063 0.011 0.078 0.019 0.011 0.045 0.009 0.066-0.005l0.858-0.544c0.007-0.004 0.013-0.010 0.018-0.016l2.023-2.459-1.59 1.007z"></path>
<path fill="#029bc5" style="fill: var(--color20, #029bc5)" d="M26.95 10.34c-0.24-0.039-0.489-0.047-0.741-0.025-0.245 0.343-0.402 0.728-0.455 1.118-0.004 0.078 0.059 0.134 0.141 0.126 0.026-0.003 0.051-0.012 0.073-0.026l1.581-1.007c-0.185-0.091-0.387-0.154-0.599-0.186z"></path>
<path fill="#d5d6db" style="fill: var(--color19, #d5d6db)" d="M23.505 12.191l1.032-0.652 0.961 1.635-1.032 0.652-0.961-1.635z"></path>
<path fill="#3a556a" style="fill: var(--color22, #3a556a)" d="M22.855 12.838c-0.124 0.079-0.174 0.23-0.111 0.338l0.102 0.175c0.067 0.105 0.221 0.124 0.343 0.041 0.116-0.079 0.163-0.221 0.107-0.327l-0.102-0.175c-0.063-0.108-0.215-0.132-0.339-0.053z"></path>
<path fill="#3a556a" style="fill: var(--color22, #3a556a)" d="M21.928 13.414c-0.124 0.079-0.174 0.23-0.111 0.338l0.102 0.175c0.067 0.105 0.221 0.124 0.343 0.041 0.116-0.079 0.163-0.221 0.107-0.327l-0.102-0.175c-0.063-0.108-0.215-0.132-0.339-0.053z"></path>
<path fill="#3a556a" style="fill: var(--color22, #3a556a)" d="M21 13.991c-0.124 0.079-0.174 0.23-0.111 0.338l0.102 0.175c0.067 0.105 0.221 0.124 0.343 0.041 0.116-0.079 0.163-0.221 0.107-0.327l-0.102-0.175c-0.063-0.108-0.215-0.132-0.34-0.053z"></path>
<path fill="#3a556a" style="fill: var(--color22, #3a556a)" d="M20.072 14.567c-0.124 0.079-0.174 0.23-0.111 0.338l0.102 0.175c0.067 0.105 0.221 0.124 0.343 0.041 0.116-0.079 0.163-0.221 0.107-0.327l-0.102-0.175c-0.063-0.108-0.215-0.132-0.34-0.053z"></path>
<path fill="#3a556a" style="fill: var(--color22, #3a556a)" d="M19.145 15.143c-0.124 0.079-0.174 0.23-0.111 0.338l0.102 0.175c0.063 0.108 0.215 0.132 0.339 0.053s0.174-0.23 0.111-0.338l-0.102-0.175c-0.063-0.108-0.215-0.132-0.339-0.053-0 0-0 0-0 0z"></path>
<path fill="#3a556a" style="fill: var(--color22, #3a556a)" d="M18.217 15.719c-0.124 0.079-0.174 0.23-0.111 0.338l0.102 0.175c0.063 0.108 0.215 0.132 0.339 0.053s0.174-0.23 0.111-0.338l-0.102-0.175c-0.063-0.108-0.215-0.132-0.339-0.053-0 0-0 0-0 0z"></path>
<path fill="#3a556a" style="fill: var(--color22, #3a556a)" d="M17.289 16.295c-0.124 0.079-0.174 0.23-0.111 0.338l0.102 0.175c0.063 0.108 0.215 0.131 0.34 0.052s0.174-0.23 0.111-0.337l-0.102-0.175c-0.063-0.108-0.215-0.132-0.339-0.053z"></path>
<path fill="#3a556a" style="fill: var(--color22, #3a556a)" d="M16.362 16.871c-0.124 0.079-0.174 0.23-0.111 0.338l0.102 0.175c0.063 0.108 0.215 0.131 0.34 0.052s0.174-0.23 0.111-0.337l-0.102-0.175c-0.063-0.108-0.215-0.132-0.339-0.053z"></path>
<path fill="#3a556a" style="fill: var(--color22, #3a556a)" d="M15.434 17.447c-0.124 0.079-0.174 0.23-0.111 0.338l0.102 0.175c0.063 0.108 0.215 0.131 0.339 0.052s0.174-0.23 0.111-0.337l-0.102-0.175c-0.063-0.108-0.215-0.132-0.339-0.053z"></path>
<path fill="#3a556a" style="fill: var(--color22, #3a556a)" d="M14.506 18.023c-0.124 0.079-0.174 0.23-0.111 0.338l0 0 0.102 0.175c0.063 0.108 0.215 0.131 0.339 0.052s0.174-0.23 0.111-0.337l-0.102-0.175c-0.063-0.108-0.215-0.132-0.339-0.053z"></path>
<path fill="#3a556a" style="fill: var(--color22, #3a556a)" d="M13.579 18.599c-0.124 0.079-0.174 0.23-0.111 0.338l0 0 0.102 0.175c0.063 0.108 0.215 0.131 0.339 0.052s0.174-0.23 0.111-0.337l-0.102-0.175c-0.063-0.108-0.215-0.132-0.339-0.053z"></path>
</symbol>
<symbol id="pluses" viewBox="0 0 30 32">
<path fill="#ff7152" style="fill: var(--color23, #ff7152)" d="M1.387 2.431h0.841v0.362h-0.841v0.953h-0.385v-0.953h-0.841v-0.362h0.841v-0.88h0.385v0.88z"></path>
<path fill="#e5e5e5" style="fill: var(--color24, #e5e5e5)" d="M1.387 9.178h0.841v0.362h-0.841v0.953h-0.385v-0.953h-0.841v-0.362h0.841v-0.88h0.385v0.88z"></path>
<path fill="#e5e5e5" style="fill: var(--color24, #e5e5e5)" d="M1.387 15.925h0.841v0.362h-0.841v0.953h-0.385v-0.953h-0.841v-0.362h0.841v-0.88h0.385v0.88z"></path>
<path fill="#e5e5e5" style="fill: var(--color24, #e5e5e5)" d="M8.134 2.431h0.841v0.362h-0.841v0.953h-0.385v-0.953h-0.841v-0.362h0.841v-0.88h0.385v0.88z"></path>
<path fill="#e5e5e5" style="fill: var(--color24, #e5e5e5)" d="M8.134 9.178h0.841v0.362h-0.841v0.953h-0.385v-0.953h-0.841v-0.362h0.841v-0.88h0.385v0.88z"></path>
<path fill="#e5e5e5" style="fill: var(--color24, #e5e5e5)" d="M8.134 15.925h0.841v0.362h-0.841v0.953h-0.385v-0.953h-0.841v-0.362h0.841v-0.88h0.385v0.88z"></path>
<path fill="#e5e5e5" style="fill: var(--color24, #e5e5e5)" d="M8.134 22.672h0.841v0.362h-0.841v0.953h-0.385v-0.953h-0.841v-0.362h0.841v-0.88h0.385v0.88z"></path>
<path fill="#e5e5e5" style="fill: var(--color24, #e5e5e5)" d="M14.881 2.431h0.841v0.362h-0.841v0.953h-0.385v-0.953h-0.841v-0.362h0.841v-0.88h0.385v0.88z"></path>
<path fill="#e5e5e5" style="fill: var(--color24, #e5e5e5)" d="M14.881 9.178h0.841v0.362h-0.841v0.953h-0.385v-0.953h-0.841v-0.362h0.841v-0.88h0.385v0.88z"></path>
<path fill="#6246e5" style="fill: var(--color25, #6246e5)" d="M14.881 15.925h0.841v0.362h-0.841v0.953h-0.385v-0.953h-0.841v-0.362h0.841v-0.88h0.385v0.88z"></path>
<path fill="#e5e5e5" style="fill: var(--color24, #e5e5e5)" d="M14.881 22.672h0.841v0.362h-0.841v0.953h-0.385v-0.953h-0.841v-0.362h0.841v-0.88h0.385v0.88z"></path>
<path fill="#e5e5e5" style="fill: var(--color24, #e5e5e5)" d="M14.881 29.419h0.841v0.362h-0.841v0.953h-0.385v-0.953h-0.841v-0.362h0.841v-0.88h0.385v0.88z"></path>
<path fill="#e5e5e5" style="fill: var(--color24, #e5e5e5)" d="M21.628 2.431h0.841v0.362h-0.841v0.953h-0.385v-0.953h-0.841v-0.362h0.841v-0.88h0.385v0.88z"></path>
<path fill="#e5e5e5" style="fill: var(--color24, #e5e5e5)" d="M21.628 9.178h0.841v0.362h-0.841v0.953h-0.385v-0.953h-0.841v-0.362h0.841v-0.88h0.385v0.88z"></path>
<path fill="#e5e5e5" style="fill: var(--color24, #e5e5e5)" d="M21.628 15.925h0.841v0.362h-0.841v0.953h-0.385v-0.953h-0.841v-0.362h0.841v-0.88h0.385v0.88z"></path>
<path fill="#e5e5e5" style="fill: var(--color24, #e5e5e5)" d="M22.469 22.672v0.36h-2.067v-0.36h2.067zM21.628 21.792v2.195h-0.383v-2.195h0.383z"></path>
<path fill="#e5e5e5" style="fill: var(--color24, #e5e5e5)" d="M21.628 29.419h0.841v0.362h-0.841v0.953h-0.385v-0.953h-0.841v-0.362h0.841v-0.88h0.385v0.88z"></path>
<path fill="#e5e5e5" style="fill: var(--color24, #e5e5e5)" d="M28.375 2.431h0.841v0.362h-0.841v0.953h-0.385v-0.953h-0.841v-0.362h0.841v-0.88h0.385v0.88z"></path>
<path fill="#e5e5e5" style="fill: var(--color24, #e5e5e5)" d="M29.216 9.178v0.36h-2.067v-0.36h2.067zM28.375 8.298v2.195h-0.383v-2.195h0.383z"></path>
<path fill="#e5e5e5" style="fill: var(--color24, #e5e5e5)" d="M28.375 15.925h0.841v0.362h-0.841v0.953h-0.385v-0.953h-0.841v-0.362h0.841v-0.88h0.385v0.88z"></path>
<path fill="#e5e5e5" style="fill: var(--color24, #e5e5e5)" d="M28.375 22.672h0.841v0.362h-0.841v0.953h-0.385v-0.953h-0.841v-0.362h0.841v-0.88h0.385v0.88z"></path>
<path fill="#e5e5e5" style="fill: var(--color24, #e5e5e5)" d="M28.375 29.419h0.841v0.362h-0.841v0.953h-0.385v-0.953h-0.841v-0.362h0.841v-0.88h0.385v0.88z"></path>
</symbol>
<symbol id="qantas" viewBox="0 0 162 32">
<path d="M0.441 1.116c0.667 1.701 2.040 3.782 3.065 4.644 1.259 1.060 2.591 1.69 6.176 2.92 3.665 1.257 6.446 2.685 8.727 4.482 2.751 2.167 2.624 2.101 3.097 1.627 0.337-0.336 0.356-0.53 0.098-1.011-0.175-0.327-0.253-0.659-0.174-0.738 0.192-0.192 3.378 1.324 4.195 1.997 1.096 0.902 0.542 1.232-3.527 2.098-4.028 0.858-4.706 3.173-1.308 4.468 1.831 0.697 5.014 2.394 6.662 3.552 2.007 1.41 5.299 4.284 5.116 4.467-0.072 0.072-0.899-0.407-1.837-1.064-3.546-2.485-7.109-4.091-11.291-5.087-1.411-0.336-2.702-0.715-2.868-0.841-0.167-0.126-0.382-0.82-0.478-1.541-0.246-1.857-1.611-4.42-3.232-6.068-0.763-0.775-2.784-2.371-4.492-3.546s-3.745-2.787-4.527-3.582l-1.422-1.446 0.411 1.029c0.226 0.566 2.404 6.253 4.841 12.639l4.43 11.61 32.852 0.133-14.175-14.114c-15.336-15.271-15.522-15.429-19.845-16.846-1.868-0.612-2.755-0.725-6.558-0.835l-4.398-0.127 0.462 1.18zM46.305 11.081c-5.064 0.697-8.505 3.663-8.505 7.333 0 1.915 0.567 3.231 2.024 4.697 2.411 2.426 5.1 3.074 12.767 3.077 5.837 0.002 6.393-0.147 7.425-1.992l0.696-1.246h-3.461l0.822-1.166c2.39-3.39 1.074-7.359-3.128-9.434-2.347-1.158-5.779-1.663-8.64-1.269zM147.795 12.282c-3.225 0.701-4.695 1.932-4.695 3.93 0 2.522 1.913 3.411 10.126 4.704 3.355 0.528 4.256 0.765 4.385 1.153 0.2 0.599-1.165 0.959-4.102 1.080-2.696 0.112-5.399-0.165-8.807-0.903-0.623-0.135-0.727-0.036-1.032 0.98-0.209 0.726-0.37 1.219-0.543 1.707l0.070-0.226c-0.334 0.869 7.909 1.897 11.909 1.484 3.646-0.376 5.3-1.069 6.43-2.694 0.865-1.243 0.393-3.241-0.977-4.139-0.823-0.539-4.22-1.403-7.064-1.796-4.116-0.57-6.115-1.092-6.022-1.575 0.135-0.699 1.932-0.93 5.887-0.755 3.247 0.144 5.429 0.416 6.794 0.848 0.35 0.11 0.541-0.171 0.865-1.277 0.229-0.78 0.366-1.468 0.306-1.528-0.326-0.326-3.671-0.882-6.75-1.121-4.279-0.332-4.7-0.325-6.78 0.128zM69.083 12.544c-0.481 0.271-1.832 2.352-4.166 6.416-1.9 3.308-3.629 6.288-3.842 6.623l-0.387 0.607h4.296l1.47-2.7h10.192l1.47 2.7h2.117c1.164 0 2.117-0.048 2.117-0.107 0-0.344-7.206-12.565-7.737-13.121-0.56-0.588-0.907-0.683-2.73-0.746-1.462-0.051-2.301 0.047-2.8 0.328zM83.97 19.17v7.020h3.767l0.074-4.582 0.074-4.581 11.059 9.163h3.656v-14.040h-3.767l-0.074 4.546-0.074 4.545-4.995-4.159c-2.747-2.288-5.323-4.333-5.724-4.546s-1.464-0.386-2.363-0.386h-1.633v7.020zM104.49 13.77v1.62h7.83v10.8h3.78v-10.8h7.56v-3.24h-19.17v1.62zM128.564 12.829c-0.444 0.374-1.168 1.316-1.608 2.093-0.441 0.777-2.084 3.63-3.651 6.341l-2.851 4.927h4.252l1.47-2.7h10.128l1.661 2.7h4.291l-2.851-4.927c-1.567-2.711-3.21-5.564-3.651-6.341-1.303-2.301-2.052-2.772-4.399-2.772-1.725 0-2.089 0.088-2.791 0.679zM52.155 15.062c1.843 0.831 2.79 2.009 2.79 3.47 0 1.079-0.127 1.335-1.121 2.262-4.004 3.735-12.919 1.378-11.667-3.085 0.394-1.404 1.94-2.584 4.148-3.165 1.32-0.347 4.569-0.059 5.85 0.518zM73.277 17.523c0.832 1.47 1.513 2.746 1.513 2.835s-1.458 0.162-3.24 0.162c-1.782 0-3.24-0.073-3.24-0.162 0-0.343 3.038-5.508 3.24-5.508 0.117 0 0.894 1.203 1.727 2.673zM133.118 17.697l1.556 2.688-1.581 0.080c-0.869 0.044-2.371 0.044-3.338 0l-1.758-0.080 1.525-2.774c0.838-1.526 1.64-2.735 1.782-2.688s0.959 1.296 1.814 2.774z"></path>
</symbol>
<symbol id="send" viewBox="0 0 32 32">
<path fill="#f5f5f5" style="fill: var(--color15, #f5f5f5)" d="M32 16c0 8.837-7.163 16-16 16s-16-7.163-16-16c0-8.837 7.163-16 16-16s16 7.163 16 16z"></path>
<path fill="#84829a" style="fill: var(--color3, #84829a)" d="M20.75 11.771l-5.616 5.636c-0.064-0.037-0.132-0.069-0.202-0.093l-3.707-1.255c-0.112-0.028-0.212-0.093-0.283-0.184s-0.11-0.203-0.11-0.319c0-0.116 0.039-0.228 0.11-0.319s0.171-0.156 0.283-0.184l9.199-3.272c0.060-0.020 0.123-0.031 0.187-0.031 0.047-0.001 0.095 0.006 0.14 0.021z"></path>
<path fill="#84829a" style="fill: var(--color3, #84829a)" d="M21.107 12.466l-3.272 9.209c-0.036 0.107-0.106 0.2-0.2 0.264s-0.206 0.095-0.319 0.089c-0.114 0.005-0.227-0.028-0.321-0.093s-0.163-0.161-0.197-0.27l-1.234-3.707c-0.025-0.070-0.056-0.138-0.093-0.202l5.647-5.616c0.032 0.107 0.028 0.222-0.010 0.327z"></path>
</symbol>
<symbol id="subscribe" viewBox="0 0 32 32">
<path fill="#000" style="fill: var(--color17, #000)" d="M32 16c0 8.837-7.163 16-16 16s-16-7.163-16-16c0-8.837 7.163-16 16-16s16 7.163 16 16z"></path>
<path fill="#fff" style="fill: var(--color2, #fff)" d="M24.050 10.967c0.316 0.547 0.274 1.199-0.111 1.701l-8.445 11.020c-0.348 0.454-0.922 0.686-1.508 0.574-0.574-0.11-1.030-0.529-1.188-1.092l-1.38-4.91-3.562-3.65c-0.409-0.418-0.543-1.022-0.352-1.574 0.189-0.546 0.665-0.943 1.251-1.019l13.767-1.804c0.627-0.082 1.212 0.207 1.528 0.754z"></path>
<path fill="#fff" style="fill: var(--color2, #fff)" d="M11.549 18.723l1.25 4.447c0.158 0.563 0.613 0.982 1.188 1.092 0.586 0.113 1.16-0.119 1.508-0.574l8.445-11.020c0.385-0.502 0.427-1.153 0.111-1.701l-12.632 7.293 0.13 0.463z"></path>
<path fill="#000" style="fill: var(--color17, #000)" d="M16.559 15.292c0.128 0.223 0.052 0.507-0.17 0.636l-4.84 2.794-0.13-0.463-0.336-0.344 4.84-2.794c0.223-0.129 0.508-0.052 0.636 0.17z"></path>
<path fill="#000" style="fill: var(--color17, #000)" d="M11.549 18.722l4.84-2.794c0.223-0.129 0.299-0.413 0.17-0.636l-5.14 2.968 0.13 0.463z"></path>
</symbol>
<symbol id="swim" viewBox="0 0 31 32">
<path fill="#f15a2b" style="fill: var(--color12, #f15a2b)" d="M8.667 0h14c4.786 0 8.667 3.88 8.667 8.667v14.667c0 4.786-3.88 8.667-8.667 8.667h-14c-4.786 0-8.667-3.88-8.667-8.667v-14.667c0-4.786 3.88-8.667 8.667-8.667z"></path>
<path fill="#fff" style="fill: var(--color2, #fff)" d="M21.879 21.286c-0.3 0.006-0.595-0.080-0.845-0.246-0.186-0.122-0.403-0.186-0.625-0.186s-0.44 0.065-0.626 0.186c-0.252 0.161-0.545 0.246-0.845 0.246s-0.592-0.085-0.845-0.246c-0.186-0.122-0.403-0.186-0.626-0.186s-0.44 0.065-0.626 0.186c-0.252 0.161-0.545 0.246-0.845 0.246s-0.592-0.085-0.845-0.246c-0.186-0.122-0.403-0.186-0.625-0.186s-0.439 0.065-0.625 0.186c-0.229 0.152-0.496 0.237-0.771 0.244l-0.015-0.432c0.203-0.005 0.4-0.069 0.567-0.185 0.252-0.161 0.545-0.246 0.844-0.246s0.592 0.085 0.844 0.246c0.186 0.122 0.403 0.186 0.626 0.186s0.44-0.065 0.626-0.186c0.252-0.161 0.546-0.246 0.845-0.246s0.592 0.085 0.845 0.246c0.186 0.122 0.403 0.186 0.625 0.186s0.44-0.065 0.626-0.186c0.252-0.161 0.545-0.246 0.845-0.246s0.592 0.085 0.845 0.246c0.186 0.122 0.404 0.187 0.627 0.187s0.441-0.065 0.627-0.187c0.25-0.166 0.544-0.252 0.843-0.246v0.432c-0.223-0.006-0.442 0.059-0.626 0.186-0.25 0.167-0.546 0.252-0.847 0.246z"></path>
<path fill="#fff" style="fill: var(--color2, #fff)" d="M10.119 21.286c-0.3 0.006-0.595-0.080-0.845-0.246-0.183-0.127-0.403-0.192-0.626-0.186v-0.432c0.3-0.006 0.595 0.080 0.845 0.246 0.183 0.127 0.402 0.193 0.626 0.186 0.223 0.006 0.442-0.059 0.626-0.187 0.249-0.166 0.544-0.252 0.843-0.246 0.292-0.007 0.58 0.075 0.825 0.235l-0.218 0.373c-0.179-0.12-0.391-0.182-0.607-0.176-0.222-0.006-0.441 0.059-0.623 0.186-0.25 0.167-0.545 0.253-0.846 0.247z"></path>
<path fill="#fff" style="fill: var(--color2, #fff)" d="M21.88 19.772c-0.3 0.006-0.595-0.080-0.845-0.246-0.186-0.122-0.404-0.186-0.626-0.186s-0.44 0.065-0.626 0.186c-0.252 0.161-0.545 0.246-0.845 0.246s-0.592-0.085-0.845-0.246c-0.186-0.122-0.403-0.186-0.625-0.186s-0.439 0.065-0.625 0.186c-0.252 0.161-0.545 0.246-0.845 0.246s-0.592-0.085-0.845-0.246c-0.186-0.122-0.403-0.186-0.625-0.186s-0.439 0.065-0.625 0.186c-0.25 0.166-0.544 0.252-0.845 0.246-0.3 0.006-0.595-0.080-0.845-0.246-0.183-0.127-0.402-0.192-0.625-0.186-0.223-0.006-0.442 0.059-0.625 0.186-0.249 0.166-0.544 0.252-0.843 0.246-0.3 0.006-0.595-0.080-0.845-0.246-0.184-0.127-0.403-0.193-0.627-0.186v-0.432c0.3-0.006 0.595 0.080 0.845 0.246 0.183 0.127 0.403 0.192 0.626 0.186 0.223 0.006 0.442-0.059 0.625-0.186 0.249-0.166 0.544-0.252 0.843-0.246 0.3-0.006 0.595 0.080 0.845 0.246 0.183 0.127 0.403 0.192 0.626 0.186 0.223 0.006 0.442-0.059 0.626-0.186 0.252-0.161 0.545-0.246 0.845-0.246s0.592 0.085 0.845 0.246c0.186 0.122 0.403 0.186 0.625 0.186s0.439-0.065 0.625-0.186c0.252-0.161 0.545-0.246 0.845-0.246s0.592 0.085 0.845 0.246c0.186 0.122 0.403 0.186 0.625 0.186s0.44-0.065 0.625-0.186c0.253-0.161 0.546-0.246 0.845-0.246s0.593 0.085 0.845 0.246c0.186 0.122 0.404 0.186 0.626 0.186s0.44-0.065 0.626-0.186c0.25-0.166 0.545-0.252 0.845-0.246v0.432c-0.224-0.006-0.443 0.059-0.627 0.186-0.25 0.166-0.545 0.252-0.845 0.246z"></path>
<path fill="#fff" style="fill: var(--color2, #fff)" d="M21.879 18.259c-0.3 0.006-0.595-0.080-0.845-0.246-0.183-0.127-0.403-0.192-0.626-0.186-0.164-0.006-0.326 0.029-0.473 0.102l-0.191-0.389c0.206-0.101 0.434-0.151 0.664-0.146 0.3-0.006 0.596 0.080 0.846 0.247 0.186 0.122 0.404 0.187 0.627 0.187s0.441-0.065 0.627-0.187c0.249-0.166 0.544-0.252 0.843-0.246v0.432c-0.223-0.006-0.442 0.059-0.626 0.186-0.25 0.167-0.546 0.253-0.847 0.246z"></path>
<path fill="#fff" style="fill: var(--color2, #fff)" d="M18.936 18.259c-0.3 0.006-0.594-0.080-0.843-0.246-0.186-0.122-0.403-0.186-0.626-0.186s-0.44 0.065-0.626 0.186c-0.252 0.161-0.545 0.246-0.845 0.246s-0.592-0.085-0.845-0.246c-0.186-0.122-0.403-0.186-0.625-0.186s-0.44 0.065-0.626 0.186c-0.25 0.166-0.544 0.252-0.844 0.246-0.3 0.006-0.595-0.080-0.845-0.246-0.183-0.127-0.403-0.192-0.626-0.186-0.222-0.006-0.441 0.059-0.623 0.186-0.25 0.167-0.545 0.253-0.845 0.247-0.3 0.006-0.595-0.080-0.845-0.246-0.183-0.127-0.403-0.192-0.626-0.186v-0.432c0.3-0.006 0.595 0.080 0.845 0.246 0.183 0.127 0.402 0.192 0.626 0.186 0.223 0.006 0.442-0.059 0.626-0.187 0.249-0.166 0.544-0.252 0.843-0.246 0.3-0.006 0.595 0.080 0.845 0.246 0.183 0.127 0.403 0.192 0.626 0.186 0.223 0.006 0.442-0.059 0.626-0.186 0.252-0.161 0.545-0.246 0.845-0.246s0.592 0.085 0.845 0.246c0.186 0.122 0.403 0.186 0.626 0.186s0.44-0.065 0.626-0.186c0.252-0.161 0.546-0.246 0.845-0.246s0.592 0.085 0.845 0.246c0.19 0.128 0.416 0.193 0.646 0.186 0.017 0 0.033-0.001 0.050-0.003l0.057 0.429c-0.043 0.005-0.087 0.007-0.131 0.007z"></path>
<path fill="#fff" style="fill: var(--color2, #fff)" d="M21.88 16.745c-0.3 0.006-0.595-0.080-0.845-0.246-0.186-0.122-0.404-0.186-0.626-0.186s-0.44 0.065-0.626 0.186c-0.252 0.161-0.545 0.246-0.845 0.246s-0.592-0.085-0.845-0.246c-0.186-0.122-0.403-0.186-0.625-0.186s-0.439 0.065-0.625 0.186c-0.252 0.161-0.545 0.246-0.845 0.246s-0.592-0.085-0.845-0.246c-0.186-0.122-0.403-0.186-0.625-0.186s-0.439 0.065-0.625 0.186c-0.25 0.166-0.544 0.252-0.845 0.246-0.3 0.006-0.595-0.080-0.845-0.246-0.183-0.127-0.402-0.192-0.625-0.186-0.223-0.006-0.442 0.059-0.625 0.186-0.249 0.166-0.544 0.252-0.843 0.246-0.3 0.006-0.595-0.080-0.845-0.246-0.184-0.127-0.403-0.193-0.627-0.186v-0.432c0.3-0.006 0.595 0.080 0.845 0.246 0.183 0.127 0.403 0.192 0.626 0.186 0.223 0.006 0.442-0.059 0.625-0.186 0.249-0.166 0.544-0.252 0.843-0.246 0.3-0.006 0.595 0.079 0.845 0.246 0.183 0.127 0.403 0.192 0.626 0.186 0.223 0.006 0.442-0.059 0.626-0.186 0.252-0.161 0.545-0.246 0.845-0.246s0.592 0.085 0.845 0.246c0.186 0.122 0.403 0.186 0.625 0.186s0.439-0.065 0.625-0.186c0.252-0.161 0.545-0.246 0.845-0.246s0.592 0.085 0.845 0.246c0.186 0.122 0.403 0.186 0.625 0.186s0.44-0.065 0.625-0.186c0.253-0.161 0.546-0.246 0.845-0.246s0.593 0.085 0.845 0.246c0.186 0.122 0.404 0.186 0.626 0.186s0.44-0.065 0.626-0.186c0.25-0.166 0.545-0.252 0.845-0.246v0.432c-0.224-0.006-0.443 0.059-0.627 0.186-0.25 0.166-0.545 0.252-0.845 0.246z"></path>
<path fill="#fff" style="fill: var(--color2, #fff)" d="M18.798 16.562l-0.408-0.143c0.105-0.302 0.148-0.622 0.126-0.941s-0.108-0.63-0.253-0.915l-1.485-2.908c-0.015-0.029-0.023-0.060-0.024-0.093s0.006-0.064 0.019-0.094c0.013-0.029 0.033-0.056 0.057-0.077s0.053-0.036 0.085-0.044l2.96-0.789c0.096-0.025 0.179-0.087 0.23-0.173s0.066-0.188 0.041-0.285c-0.024-0.097-0.086-0.18-0.171-0.231s-0.188-0.067-0.284-0.044l-3.582 0.856c-0.077 0.018-0.148 0.054-0.209 0.104s-0.109 0.114-0.141 0.185c-0.032 0.072-0.047 0.15-0.045 0.229s0.024 0.156 0.061 0.225l1.064 1.976c0.027 0.050 0.033 0.109 0.017 0.164s-0.053 0.101-0.103 0.128l-1.373 0.757-0.209-0.379 1.185-0.653-0.961-1.788c-0.069-0.128-0.107-0.269-0.113-0.414s0.023-0.289 0.082-0.421 0.148-0.249 0.26-0.341c0.112-0.092 0.243-0.158 0.384-0.191l3.581-0.856c0.208-0.053 0.429-0.020 0.614 0.090s0.318 0.289 0.371 0.498c0.053 0.208 0.020 0.429-0.090 0.614s-0.289 0.318-0.498 0.371l-2.701 0.72 1.364 2.67c0.172 0.337 0.274 0.705 0.299 1.083s-0.025 0.756-0.15 1.113z"></path>
<path fill="#fff" style="fill: var(--color2, #fff)" d="M14.415 14.489l-2.628 1.448 0.209 0.379 2.627-1.448-0.209-0.379z"></path>
<path fill="#fff" style="fill: var(--color2, #fff)" d="M20.757 15.123c-0.321 0-0.634-0.095-0.901-0.273s-0.474-0.431-0.597-0.728c-0.123-0.296-0.155-0.622-0.092-0.937s0.217-0.604 0.444-0.83c0.227-0.227 0.516-0.381 0.83-0.444s0.641-0.030 0.937 0.092c0.296 0.123 0.55 0.331 0.728 0.597s0.273 0.58 0.273 0.901c-0 0.43-0.171 0.842-0.475 1.146s-0.716 0.475-1.146 0.475zM20.757 12.312c-0.235 0-0.465 0.070-0.661 0.2s-0.348 0.316-0.438 0.534c-0.090 0.217-0.114 0.456-0.068 0.687s0.159 0.443 0.325 0.609c0.166 0.166 0.378 0.28 0.609 0.325s0.47 0.022 0.687-0.068c0.217-0.090 0.403-0.242 0.534-0.438s0.2-0.425 0.2-0.661c-0-0.315-0.126-0.618-0.349-0.84s-0.525-0.348-0.84-0.349z"></path>
</symbol>
<symbol id="twitter" viewBox="0 0 40 32">
<path fill="#21a6df" style="fill: var(--color26, #21a6df)" d="M39.201 3.945c-1.411 0.617-2.946 1.062-4.527 1.235 1.642-0.99 2.871-2.553 3.457-4.397-1.54 0.93-3.228 1.582-4.988 1.927-0.736-0.798-1.625-1.434-2.613-1.867s-2.054-0.656-3.131-0.654c-4.356 0-7.86 3.583-7.86 7.981 0 0.617 0.074 1.235 0.194 1.829-6.523-0.346-12.341-3.509-16.208-8.35-0.705 1.222-1.074 2.612-1.069 4.028 0 2.769 1.388 5.211 3.503 6.648-1.247-0.050-2.465-0.398-3.554-1.015v0.098c0 3.878 2.701 7.092 6.302 7.831-0.676 0.178-1.371 0.269-2.070 0.271-0.512 0-0.996-0.052-1.484-0.122 0.996 3.162 3.895 5.459 7.348 5.534-2.701 2.147-6.085 3.41-9.759 3.41-0.659 0-1.268-0.023-1.899-0.098 3.485 2.269 7.62 3.579 12.073 3.579 14.456 0 22.367-12.154 22.367-22.703 0-0.346 0-0.692-0.023-1.039 1.531-1.137 2.872-2.545 3.941-4.126z"></path>
</symbol>
<symbol id="weather" viewBox="0 0 31 32">
<path fill="#407093" style="fill: var(--color27, #407093)" d="M10.755 23.158l-0.863-0.413-5.128 7.582h5.723l0.551-0.36v-6.549l-0.283-0.259z"></path>
<path fill="#365e7d" style="fill: var(--color28, #365e7d)" d="M9.97 22.782l-1.941-0.929h-0.366l-5.487 8.114 0.327 0.36h2.365l5.102-7.544z"></path>
<path fill="#4a80aa" style="fill: var(--color29, #4a80aa)" d="M12.069 29.966h-7.567c-0.344 0-0.622 0.279-0.622 0.622v0.789c0 0.344 0.279 0.622 0.622 0.622h7.567c0.344 0 0.622-0.279 0.622-0.622v-0.789c0-0.344-0.279-0.622-0.622-0.622z"></path>
<path fill="#407093" style="fill: var(--color27, #407093)" d="M4.008 31.378v-0.789c0-0.344 0.279-0.622 0.622-0.622h-4.008c-0.344 0-0.622 0.279-0.622 0.622v0.789c0 0.344 0.279 0.622 0.622 0.622h4.008c-0.344 0-0.622-0.279-0.622-0.622z"></path>
<path fill="#4a80aa" style="fill: var(--color29, #4a80aa)" d="M9.71 18.278c-0.233 0.48-0.365 1.019-0.365 1.589 0 1.557 0.975 2.886 2.348 3.412 0.589-0.185 1.113-0.518 1.527-0.956v-0.796l-3.51-3.249z"></path>
<path fill="#407093" style="fill: var(--color27, #407093)" d="M9.406 19.879c0-0.557 0.129-1.083 0.357-1.552l-1.122-1.038h-0.455c-0.688 0.649-1.119 1.57-1.119 2.591 0 1.967 1.595 3.562 3.562 3.562 0.41 0 0.803-0.070 1.169-0.198-1.392-0.484-2.391-1.807-2.391-3.364z"></path>
<path fill="#ffd086" style="fill: var(--color30, #ffd086)" d="M30.085 0.423c-0.564-0.564-1.477-0.564-2.041 0l-1.377 1.377v0.175l1.719 1.792 0.322 0.074 1.377-1.377c0.564-0.564 0.564-1.477 0-2.041z"></path>
<path fill="#ffc365" style="fill: var(--color31, #ffc365)" d="M30.466 1.104c-0.060-0.25-0.186-0.486-0.381-0.681-0.564-0.564-1.477-0.564-2.041 0l-1.377 1.377v0.175l0.911 0.95c0.543-0.565 1.083-1.123 1.36-1.401 0.462-0.462 1.138-0.466 1.527-0.42z"></path>
<path fill="#365e7d" style="fill: var(--color28, #365e7d)" d="M25.37 4.092c-0.016 0-0.032-0.001-0.048-0.002l-15.916-1.567c-0.265-0.026-0.459-0.262-0.433-0.528s0.263-0.459 0.528-0.433l15.916 1.567c0.265 0.026 0.459 0.262 0.433 0.528-0.025 0.249-0.235 0.436-0.48 0.436z"></path>
<path fill="#407093" style="fill: var(--color27, #407093)" d="M14.010 7.071c-0.214 0-0.41-0.144-0.467-0.361-0.068-0.258 0.087-0.522 0.345-0.59l11.36-2.98c0.258-0.068 0.522 0.087 0.59 0.345s-0.087 0.522-0.345 0.59l-11.36 2.98c-0.041 0.011-0.082 0.016-0.123 0.016z"></path>
<path fill="#365e7d" style="fill: var(--color28, #365e7d)" d="M28.456 21.548c-0.246 0-0.456-0.186-0.48-0.436l-1.557-15.926c-0.026-0.265 0.168-0.502 0.434-0.528 0.265-0.025 0.502 0.168 0.528 0.434l1.557 15.926c0.026 0.265-0.168 0.502-0.434 0.528-0.016 0.001-0.032 0.002-0.047 0.002z"></path>
<path fill="#407093" style="fill: var(--color27, #407093)" d="M23.874 17.027c-0.041 0-0.083-0.005-0.124-0.016-0.258-0.068-0.411-0.333-0.343-0.591l3.024-11.404c0.068-0.258 0.333-0.411 0.59-0.343s0.411 0.333 0.343 0.591l-3.024 11.404c-0.057 0.216-0.253 0.359-0.466 0.359z"></path>
<path fill="#ffc365" style="fill: var(--color31, #ffc365)" d="M25.283 3.184l1.381-1.381 2.041 2.041-1.381 1.381-2.041-2.041z"></path>
<path fill="#ffa90f" style="fill: var(--color32, #ffa90f)" d="M26.332 4.227c0.332-0.348 0.85-0.889 1.351-1.411l-1.016-1.016-1.381 1.381 1.046 1.046z"></path>
<path fill="#4a80aa" style="fill: var(--color29, #4a80aa)" d="M27.635 6.012c-0.124 0-0.247-0.047-0.341-0.141l-2.656-2.656c-0.189-0.189-0.189-0.494 0-0.683s0.494-0.188 0.683 0l2.656 2.656c0.189 0.189 0.189 0.494 0 0.683-0.094 0.094-0.218 0.141-0.341 0.141z"></path>
<path fill="#b5dcff" style="fill: var(--color33, #b5dcff)" d="M27.946 22.417l-16.169-16.31c-2.144 4.84-2.516 10.035-0.911 14.515 4.432 3.998 11.053 4.612 17.148 2.099l-0.068-0.304z"></path>
<path fill="#8bcaff" style="fill: var(--color34, #8bcaff)" d="M11.863 6.194l-3.705-3.737-0.371 0.037c-2.61 6.33-1.848 13.228 2.576 17.651 0.268 0.268 0.545 0.522 0.831 0.763-1.865-4.475-1.562-9.797 0.67-14.715z"></path>
<path fill="#dbedff" style="fill: var(--color35, #dbedff)" d="M29.424 21.258l-16.399-16.399c-0.161 0.025-0.317 0.098-0.441 0.223l-0.713 0.713c-0.153 0.153-0.229 0.353-0.232 0.554l16.347 16.347c0.243 0.243 0.637 0.243 0.88 0l0.558-0.558c0.243-0.243 0.243-0.637-0-0.88z"></path>
<path fill="#b5dcff" style="fill: var(--color33, #b5dcff)" d="M11.895 5.807l0.698-0.698c0.129-0.129 0.291-0.202 0.459-0.222l-3.802-3.802c-0.243-0.243-0.637-0.243-0.88 0l-0.558 0.558c-0.243 0.243-0.243 0.637 0 0.88l3.855 3.855c-0.005-0.206 0.070-0.414 0.227-0.571z"></path>
</symbol>
<symbol id="youtube" viewBox="0 0 44 32">
<path fill="#e42f08" style="fill: var(--color36, #e42f08)" d="M42.613 5.211c-0.242-0.947-0.718-1.811-1.377-2.505s-1.481-1.193-2.382-1.448c-3.318-0.944-16.653-0.944-16.653-0.944s-13.334 0-16.653 0.944c-0.901 0.255-1.723 0.754-2.382 1.448s-1.135 1.558-1.377 2.505c-0.62 3.559-0.92 7.17-0.898 10.788-0.022 3.618 0.278 7.229 0.898 10.788 0.243 0.948 0.717 1.811 1.377 2.505s1.481 1.193 2.382 1.448c3.318 0.944 16.653 0.944 16.653 0.944s13.334 0 16.653-0.944c0.901-0.255 1.723-0.755 2.382-1.448s1.135-1.558 1.377-2.505c0.62-3.559 0.92-7.17 0.898-10.788 0.022-3.618-0.279-7.229-0.898-10.788zM17.939 22.722v-13.445l11.066 6.723-11.066 6.723z"></path>
</symbol>
</defs>
</svg>
