<svg aria-hidden="true" style="position: absolute; width: 0; height: 0; overflow: hidden;" version="1.1" xmlns="http://www.w3.org/2000/svg" xmlns:xlink="http://www.w3.org/1999/xlink">
<defs>
<symbol id="app-store" viewBox="0 0 91 32">
<path fill="#080809" style="fill: var(--color1, #080809)" d="M16 0h59.429c8.837 0 16 7.163 16 16s-7.163 16-16 16h-59.429c-8.837 0-16-7.163-16-16s7.163-16 16-16z"></path>
<path fill="#fff" style="fill: var(--color2, #fff)" d="M19.922 21.943c-2.177-0.013-3.978-4.457-3.978-6.72 0-3.697 2.774-4.507 3.843-4.507 0.482 0 0.996 0.189 1.45 0.357 0.317 0.117 0.645 0.237 0.828 0.237 0.109 0 0.367-0.102 0.594-0.193 0.485-0.193 1.088-0.433 1.79-0.433 0.001 0 0.003 0 0.004 0 0.524 0 2.114 0.115 3.070 1.551l0.224 0.337-0.322 0.243c-0.46 0.347-1.3 0.981-1.3 2.236 0 1.487 0.951 2.058 1.408 2.333 0.202 0.121 0.41 0.247 0.41 0.52 0 0.179-1.426 4.016-3.498 4.016-0.507 0-0.865-0.152-1.181-0.287-0.32-0.136-0.596-0.253-1.051-0.253-0.231 0-0.523 0.109-0.832 0.225-0.423 0.158-0.901 0.337-1.444 0.337h-0.014z"></path>
<path fill="#fff" style="fill: var(--color2, #fff)" d="M24.667 7.314c0.054 1.945-1.337 3.294-2.726 3.21-0.229-1.552 1.389-3.21 2.726-3.21z"></path>
<path fill="#fff" style="fill: var(--color2, #fff)" d="M35.685 11.886h0.96l-1.306-3.84h-1.119l-1.306 3.84h0.96l0.192-0.603h1.426l0.192 0.603zM34.33 10.46l0.45-1.41 0.45 1.41h-0.9z"></path>
<path fill="#fff" style="fill: var(--color2, #fff)" d="M38.587 9.143l-0.571 1.739-0.571-1.739h-0.911l1.015 2.743h0.933l1.015-2.743h-0.911z"></path>
<path fill="#fff" style="fill: var(--color2, #fff)" d="M41.684 9.143v0.258c-0.181-0.208-0.45-0.335-0.817-0.335-0.719 0-1.311 0.631-1.311 1.448s0.592 1.448 1.311 1.448c0.368 0 0.636-0.126 0.817-0.335v0.258h0.823v-2.743h-0.823zM41.031 11.184c-0.379 0-0.653-0.258-0.653-0.669s0.274-0.669 0.653-0.669c0.379 0 0.653 0.258 0.653 0.669s-0.274 0.669-0.653 0.669z"></path>
<path fill="#fff" style="fill: var(--color2, #fff)" d="M43.111 11.886h0.823v-4.005h-0.823v4.005z"></path>
<path fill="#fff" style="fill: var(--color2, #fff)" d="M44.947 8.902c0.269 0 0.494-0.225 0.494-0.494s-0.225-0.494-0.494-0.494c-0.269 0-0.494 0.225-0.494 0.494s0.225 0.494 0.494 0.494zM44.536 11.886h0.823v-2.743h-0.823v2.743z"></path>
<path fill="#fff" style="fill: var(--color2, #fff)" d="M47.601 9.066c-0.368 0-0.636 0.126-0.817 0.335v-1.355h-0.823v3.84h0.823v-0.258c0.181 0.208 0.45 0.335 0.817 0.335 0.719 0 1.311-0.631 1.311-1.448s-0.592-1.448-1.311-1.448zM47.436 11.184c-0.379 0-0.653-0.258-0.653-0.669s0.274-0.669 0.653-0.669c0.379 0 0.653 0.258 0.653 0.669s-0.274 0.669-0.653 0.669z"></path>
<path fill="#fff" style="fill: var(--color2, #fff)" d="M49.378 11.886h0.823v-4.005h-0.823v4.005z"></path>
<path fill="#fff" style="fill: var(--color2, #fff)" d="M51.539 10.844h1.947c0.022-0.104 0.033-0.214 0.033-0.329 0-0.828-0.592-1.448-1.393-1.448-0.867 0-1.459 0.631-1.459 1.448s0.581 1.448 1.52 1.448c0.521 0 0.927-0.192 1.196-0.565l-0.658-0.379c-0.11 0.121-0.302 0.208-0.527 0.208-0.302 0-0.554-0.099-0.658-0.384zM51.522 10.229c0.077-0.28 0.285-0.433 0.598-0.433 0.247 0 0.494 0.115 0.581 0.433h-1.179z"></path>
<path fill="#fff" style="fill: var(--color2, #fff)" d="M56.674 11.963c0.806 0 1.454-0.631 1.454-1.448s-0.647-1.448-1.454-1.448c-0.806 0-1.454 0.631-1.454 1.448s0.647 1.448 1.454 1.448zM56.674 11.162c-0.357 0-0.631-0.258-0.631-0.647s0.274-0.647 0.631-0.647c0.357 0 0.631 0.258 0.631 0.647s-0.274 0.647-0.631 0.647z"></path>
<path fill="#fff" style="fill: var(--color2, #fff)" d="M60.2 9.066c-0.362 0-0.636 0.132-0.784 0.335v-0.258h-0.823v2.743h0.823v-1.498c0-0.389 0.208-0.565 0.51-0.565 0.263 0 0.477 0.159 0.477 0.499v1.563h0.823v-1.684c0-0.741-0.472-1.136-1.026-1.136z"></path>
<path fill="#fff" style="fill: var(--color2, #fff)" d="M64.77 9.933v-0.79h-0.565v-0.768l-0.823 0.247v0.521h-0.439v0.79h0.439v0.971c0 0.768 0.313 1.092 1.388 0.982v-0.746c-0.362 0.022-0.565 0-0.565-0.236v-0.971h0.565z"></path>
<path fill="#fff" style="fill: var(--color2, #fff)" d="M66.843 9.066c-0.362 0-0.636 0.132-0.784 0.335v-1.355h-0.823v3.84h0.823v-1.498c0-0.389 0.208-0.565 0.51-0.565 0.263 0 0.477 0.159 0.477 0.499v1.563h0.823v-1.684c0-0.741-0.472-1.136-1.026-1.136z"></path>
<path fill="#fff" style="fill: var(--color2, #fff)" d="M69.169 10.844h1.947c0.022-0.104 0.033-0.214 0.033-0.329 0-0.828-0.592-1.448-1.393-1.448-0.867 0-1.459 0.631-1.459 1.448s0.582 1.448 1.52 1.448c0.521 0 0.927-0.192 1.196-0.565l-0.658-0.379c-0.11 0.121-0.302 0.208-0.527 0.208-0.302 0-0.554-0.099-0.658-0.384zM69.152 10.229c0.077-0.28 0.285-0.433 0.598-0.433 0.247 0 0.494 0.115 0.582 0.433h-1.179z"></path>
<path fill="#fff" style="fill: var(--color2, #fff)" d="M37.531 21.943h1.6l-2.176-6.4h-1.865l-2.176 6.4h1.6l0.32-1.006h2.377l0.32 1.006zM35.273 19.566l0.75-2.35 0.75 2.35h-1.499z"></path>
<path fill="#fff" style="fill: var(--color2, #fff)" d="M42.365 17.244c-0.613 0-1.061 0.21-1.362 0.558v-0.43h-1.371v6.4h1.371v-2.258c0.302 0.347 0.75 0.558 1.362 0.558 1.198 0 2.185-1.051 2.185-2.414s-0.987-2.414-2.185-2.414zM42.091 20.773c-0.631 0-1.088-0.43-1.088-1.115s0.457-1.115 1.088-1.115c0.631 0 1.088 0.43 1.088 1.115s-0.457 1.115-1.088 1.115z"></path>
<path fill="#fff" style="fill: var(--color2, #fff)" d="M48.062 17.244c-0.613 0-1.061 0.21-1.362 0.558v-0.43h-1.371v6.4h1.371v-2.258c0.302 0.347 0.75 0.558 1.362 0.558 1.198 0 2.185-1.051 2.185-2.414s-0.987-2.414-2.185-2.414zM47.787 20.773c-0.631 0-1.088-0.43-1.088-1.115s0.457-1.115 1.088-1.115c0.631 0 1.088 0.43 1.088 1.115s-0.457 1.115-1.088 1.115z"></path>
<path fill="#fff" style="fill: var(--color2, #fff)" d="M51.024 21.943h1.371v-6.674h-1.371v6.674z"></path>
<path fill="#fff" style="fill: var(--color2, #fff)" d="M54.624 20.206h3.246c0.037-0.174 0.055-0.357 0.055-0.549 0-1.381-0.987-2.414-2.322-2.414-1.445 0-2.432 1.051-2.432 2.414s0.969 2.414 2.533 2.414c0.869 0 1.545-0.32 1.993-0.942l-1.097-0.631c-0.183 0.201-0.503 0.347-0.878 0.347-0.503 0-0.923-0.165-1.097-0.64zM54.597 19.182c0.128-0.466 0.475-0.722 0.997-0.722 0.411 0 0.823 0.192 0.969 0.722h-1.966z"></path>
<path fill="#fff" style="fill: var(--color2, #fff)" d="M63.274 22.071c1.39 0 2.377-0.731 2.377-1.966 0-1.353-1.088-1.691-2.057-1.984-0.997-0.302-1.152-0.503-1.152-0.795 0-0.256 0.229-0.485 0.686-0.485 0.585 0 0.887 0.283 1.106 0.741l1.234-0.722c-0.466-0.942-1.289-1.445-2.341-1.445-1.106 0-2.148 0.713-2.148 1.947 0 1.225 0.932 1.682 1.883 1.947 0.96 0.265 1.326 0.421 1.326 0.814 0 0.247-0.174 0.521-0.869 0.521-0.722 0-1.115-0.357-1.344-0.887l-1.262 0.731c0.357 0.942 1.216 1.582 2.56 1.582z"></path>
<path fill="#fff" style="fill: var(--color2, #fff)" d="M68.882 18.688v-1.317h-0.942v-1.28l-1.371 0.411v0.869h-0.731v1.317h0.731v1.618c0 1.28 0.521 1.819 2.313 1.637v-1.243c-0.603 0.037-0.942 0-0.942-0.393v-1.618h0.942z"></path>
<path fill="#fff" style="fill: var(--color2, #fff)" d="M71.763 22.071c1.344 0 2.423-1.051 2.423-2.414s-1.079-2.414-2.423-2.414c-1.344 0-2.423 1.051-2.423 2.414s1.079 2.414 2.423 2.414zM71.763 20.736c-0.594 0-1.051-0.43-1.051-1.079s0.457-1.079 1.051-1.079c0.594 0 1.051 0.43 1.051 1.079s-0.457 1.079-1.051 1.079z"></path>
<path fill="#fff" style="fill: var(--color2, #fff)" d="M76.333 18.185v-0.814h-1.371v4.571h1.371v-2.066c0-0.905 0.805-1.134 1.371-1.042v-1.554c-0.576 0-1.189 0.293-1.371 0.905z"></path>
<path fill="#fff" style="fill: var(--color2, #fff)" d="M79.437 20.206h3.246c0.037-0.174 0.055-0.357 0.055-0.549 0-1.381-0.987-2.414-2.322-2.414-1.445 0-2.432 1.051-2.432 2.414s0.969 2.414 2.533 2.414c0.869 0 1.545-0.32 1.993-0.942l-1.097-0.631c-0.183 0.201-0.503 0.347-0.878 0.347-0.503 0-0.923-0.165-1.097-0.64zM79.409 19.182c0.128-0.466 0.475-0.722 0.997-0.722 0.411 0 0.823 0.192 0.969 0.722h-1.966z"></path>
</symbol>
<symbol id="building" viewBox="0 0 32 32">
<path fill="#84829a" style="fill: var(--color3, #84829a)" d="M0.533 30.933h3.2v-17.6c0-0.295 0.239-0.533 0.533-0.533h7.467v-12.267c0-0.295 0.239-0.533 0.533-0.533h13.867c0.294 0 0.533 0.239 0.533 0.533v30.4h4.8c0.295 0 0.533 0.239 0.533 0.533s-0.239 0.533-0.533 0.533h-30.933c-0.295 0-0.533-0.239-0.533-0.533s0.239-0.533 0.533-0.533zM20.8 30.933h2.133v-4.8c0-0.295-0.239-0.533-0.533-0.533h-1.067c-0.295 0-0.533 0.239-0.533 0.533v4.8zM18.667 13.333v17.6h1.067v-4.8c0-0.884 0.716-1.6 1.6-1.6h1.067c0.884 0 1.6 0.716 1.6 1.6v4.8h1.6v-29.867h-12.8v11.733h5.333c0.295 0 0.533 0.239 0.533 0.533zM4.8 30.933h12.8v-17.067h-12.8v17.067z"></path>
<path fill="#84829a" style="fill: var(--color3, #84829a)" d="M14.933 7.467h3.2c0.295 0 0.533 0.239 0.533 0.533v3.2c0 0.295-0.239 0.533-0.533 0.533h-3.2c-0.295 0-0.533-0.239-0.533-0.533v-3.2c0-0.295 0.239-0.533 0.533-0.533zM15.467 10.667h2.133v-2.133h-2.133v2.133z"></path>
<path fill="#84829a" style="fill: var(--color3, #84829a)" d="M14.933 2.133h3.2c0.295 0 0.533 0.239 0.533 0.533v3.2c0 0.295-0.239 0.533-0.533 0.533h-3.2c-0.295 0-0.533-0.239-0.533-0.533v-3.2c0-0.295 0.239-0.533 0.533-0.533zM15.467 5.333h2.133v-2.133h-2.133v2.133z"></path>
<path fill="#84829a" style="fill: var(--color3, #84829a)" d="M20.267 7.467h3.2c0.295 0 0.533 0.239 0.533 0.533v3.2c0 0.295-0.239 0.533-0.533 0.533h-3.2c-0.294 0-0.533-0.239-0.533-0.533v-3.2c0-0.295 0.239-0.533 0.533-0.533zM20.8 10.667h2.133v-2.133h-2.133v2.133z"></path>
<path fill="#84829a" style="fill: var(--color3, #84829a)" d="M20.267 2.133h3.2c0.295 0 0.533 0.239 0.533 0.533v3.2c0 0.295-0.239 0.533-0.533 0.533h-3.2c-0.294 0-0.533-0.239-0.533-0.533v-3.2c0-0.295 0.239-0.533 0.533-0.533zM20.8 5.333h2.133v-2.133h-2.133v2.133z"></path>
<path fill="#84829a" style="fill: var(--color3, #84829a)" d="M20.267 12.8h3.2c0.295 0 0.533 0.239 0.533 0.533v3.2c0 0.295-0.239 0.533-0.533 0.533h-3.2c-0.294 0-0.533-0.239-0.533-0.533v-3.2c0-0.295 0.239-0.533 0.533-0.533zM20.8 16h2.133v-2.133h-2.133v2.133z"></path>
<path fill="#84829a" style="fill: var(--color3, #84829a)" d="M20.267 18.133h3.2c0.295 0 0.533 0.239 0.533 0.533v3.2c0 0.295-0.239 0.533-0.533 0.533h-3.2c-0.294 0-0.533-0.239-0.533-0.533v-3.2c0-0.295 0.239-0.533 0.533-0.533zM20.8 21.333h2.133v-2.133h-2.133v2.133z"></path>
<path fill="#84829a" style="fill: var(--color3, #84829a)" d="M10.133 24.533h-3.2c-0.295 0-0.533-0.239-0.533-0.533v-3.2c0-0.295 0.239-0.533 0.533-0.533h3.2c0.295 0 0.533 0.239 0.533 0.533v3.2c0 0.294-0.239 0.533-0.533 0.533zM9.6 21.333h-2.133v2.133h2.133v-2.133z"></path>
<path fill="#84829a" style="fill: var(--color3, #84829a)" d="M10.133 19.2h-3.2c-0.295 0-0.533-0.239-0.533-0.533v-3.2c0-0.295 0.239-0.533 0.533-0.533h3.2c0.295 0 0.533 0.239 0.533 0.533v3.2c0 0.295-0.239 0.533-0.533 0.533zM9.6 16h-2.133v2.133h2.133v-2.133z"></path>
<path fill="#84829a" style="fill: var(--color3, #84829a)" d="M10.133 29.867h-3.2c-0.295 0-0.533-0.239-0.533-0.533v-3.2c0-0.295 0.239-0.533 0.533-0.533h3.2c0.295 0 0.533 0.239 0.533 0.533v3.2c0 0.295-0.239 0.533-0.533 0.533zM9.6 26.667h-2.133v2.133h2.133v-2.133z"></path>
<path fill="#84829a" style="fill: var(--color3, #84829a)" d="M15.467 24.533h-3.2c-0.295 0-0.533-0.239-0.533-0.533v-3.2c0-0.295 0.239-0.533 0.533-0.533h3.2c0.295 0 0.533 0.239 0.533 0.533v3.2c0 0.294-0.239 0.533-0.533 0.533zM14.933 21.333h-2.133v2.133h2.133v-2.133z"></path>
<path fill="#84829a" style="fill: var(--color3, #84829a)" d="M15.467 19.2h-3.2c-0.295 0-0.533-0.239-0.533-0.533v-3.2c0-0.295 0.239-0.533 0.533-0.533h3.2c0.295 0 0.533 0.239 0.533 0.533v3.2c0 0.295-0.239 0.533-0.533 0.533zM14.933 16h-2.133v2.133h2.133v-2.133z"></path>
<path fill="#84829a" style="fill: var(--color3, #84829a)" d="M15.467 29.867h-3.2c-0.295 0-0.533-0.239-0.533-0.533v-3.2c0-0.295 0.239-0.533 0.533-0.533h3.2c0.295 0 0.533 0.239 0.533 0.533v3.2c0 0.295-0.239 0.533-0.533 0.533zM14.933 26.667h-2.133v2.133h2.133v-2.133z"></path>
</symbol>
<symbol id="drop-arrow" viewBox="0 0 53 32">
<path stroke-linejoin="miter" stroke-linecap="butt" stroke-miterlimit="4" stroke-width="5.3333" d="M2.667 2.667l24 24 24-24"></path>
</symbol>
<symbol id="facebook" viewBox="0 0 33 32">
<path fill="#335bf5" style="fill: var(--color9, #335bf5)" d="M31.387 0h-29.44c-0.708 0-1.28 0.572-1.28 1.28v29.44c0 0.708 0.572 1.28 1.28 1.28h29.44c0.708 0 1.28-0.572 1.28-1.28v-29.44c0-0.708-0.572-1.28-1.28-1.28zM27.691 9.34h-2.556c-2.004 0-2.392 0.952-2.392 2.352v3.084h4.784l-0.624 4.828h-4.16v12.396h-4.988v-12.392h-4.172v-4.832h4.172v-3.56c0-4.132 2.524-6.384 6.212-6.384 1.768 0 3.284 0.132 3.728 0.192v4.316h-0.004z"></path>
</symbol>
<symbol id="google-play" viewBox="0 0 98 32">
<path fill="#080809" style="fill: var(--color1, #080809)" d="M16 0h65.829c8.837 0 16 7.163 16 16s-7.163 16-16 16h-65.829c-8.837 0-16-7.163-16-16s7.163-16 16-16z"></path>
<path fill="#2196f3" style="fill: var(--color10, #2196f3)" d="M26.064 15.544l-9.183 8.842c-0.43-0.294-0.685-0.783-0.681-1.303v-15.078c-0.005-0.521 0.251-1.010 0.681-1.303l9.183 8.842z"></path>
<path fill="#4caf50" style="fill: var(--color11, #4caf50)" d="M29.277 12.456l-3.213 3.089-9.183-8.842c0.035-0.027 0.071-0.052 0.108-0.075 0.485-0.294 1.091-0.304 1.586-0.025l10.702 5.853z"></path>
<path fill="#f0bb1f" style="fill: var(--color8, #f0bb1f)" d="M33.171 15.544c0.006 0.588-0.313 1.131-0.83 1.411l-3.064 1.677-3.213-3.089 3.213-3.089 3.064 1.677c0.517 0.28 0.836 0.823 0.83 1.411z"></path>
<path fill="#f15a2b" style="fill: var(--color12, #f15a2b)" d="M29.277 18.633l-10.702 5.853c-0.495 0.274-1.099 0.265-1.586-0.025-0.037-0.023-0.073-0.048-0.108-0.075l9.183-8.842 3.213 3.089z"></path>
<path fill="#fff" style="fill: var(--color2, #fff)" d="M43.908 10.862h-2.567v1.024h1.368c-0.183 0.49-0.629 0.79-1.309 0.79-0.995 0-1.609-0.636-1.609-1.507 0-0.9 0.644-1.536 1.507-1.536 0.578 0 1.039 0.263 1.251 0.6l0.995-0.571c-0.432-0.688-1.258-1.17-2.238-1.17-1.507 0-2.684 1.185-2.684 2.67 0 1.47 1.156 2.655 2.765 2.655 1.434 0 2.523-0.951 2.523-2.516v-0.439z"></path>
<path fill="#fff" style="fill: var(--color2, #fff)" d="M45.372 12.588v-0.907h1.829v-1.112h-1.829v-0.848h2.011v-1.126h-3.182v5.12h3.218v-1.126h-2.048z"></path>
<path fill="#fff" style="fill: var(--color2, #fff)" d="M51.152 8.594h-3.803v1.126h1.317v3.994h1.17v-3.994h1.317v-1.126z"></path>
<path fill="#fff" style="fill: var(--color2, #fff)" d="M52.762 8.594v5.12h1.17v-5.12h-1.17z"></path>
<path fill="#fff" style="fill: var(--color2, #fff)" d="M57.884 8.594h-3.803v1.126h1.317v3.994h1.17v-3.994h1.317v-1.126z"></path>
<path fill="#fff" style="fill: var(--color2, #fff)" d="M61.936 13.817c1.47 0 2.662-1.156 2.662-2.662s-1.192-2.662-2.662-2.662c-1.47 0-2.662 1.156-2.662 2.662s1.192 2.662 2.662 2.662zM61.936 12.676c-0.834 0-1.492-0.607-1.492-1.521s0.658-1.521 1.492-1.521c0.834 0 1.492 0.607 1.492 1.521s-0.658 1.521-1.492 1.521z"></path>
<path fill="#fff" style="fill: var(--color2, #fff)" d="M67.744 8.594v2.779l-1.975-2.779h-0.878v5.12h1.17v-2.779l1.975 2.779h0.878v-5.12h-1.17z"></path>
<path fill="#fff" style="fill: var(--color2, #fff)" d="M43.908 19.558v0.198c0 0.639-0.227 1.178-0.68 1.616-0.453 0.434-1.051 0.651-1.792 0.651-0.78 0-1.424-0.254-1.931-0.761-0.507-0.512-0.761-1.139-0.761-1.88s0.251-1.365 0.753-1.872c0.502-0.512 1.139-0.768 1.909-0.768 0.468 0 0.897 0.112 1.287 0.336 0.395 0.224 0.7 0.524 0.914 0.9l-0.344 0.205c-0.171-0.322-0.424-0.58-0.761-0.775-0.332-0.195-0.697-0.293-1.097-0.293-0.663 0-1.209 0.219-1.638 0.658-0.424 0.434-0.636 0.97-0.636 1.609s0.215 1.178 0.644 1.616c0.429 0.434 0.983 0.651 1.66 0.651 0.6 0 1.085-0.163 1.456-0.49s0.578-0.739 0.622-1.236h-2.172v-0.366h2.567z"></path>
<path fill="#fff" style="fill: var(--color2, #fff)" d="M49.1 21.255c-0.512 0.512-1.136 0.768-1.872 0.768s-1.36-0.256-1.872-0.768c-0.512-0.517-0.768-1.141-0.768-1.872s0.256-1.353 0.768-1.865c0.512-0.517 1.136-0.775 1.872-0.775s1.36 0.258 1.872 0.775c0.512 0.512 0.768 1.134 0.768 1.865s-0.256 1.356-0.768 1.872zM45.625 20.992c0.439 0.439 0.973 0.658 1.602 0.658s1.16-0.219 1.594-0.658c0.439-0.444 0.658-0.98 0.658-1.609s-0.219-1.163-0.658-1.602c-0.434-0.444-0.965-0.666-1.594-0.666s-1.163 0.222-1.602 0.666c-0.434 0.439-0.651 0.973-0.651 1.602s0.217 1.165 0.651 1.609z"></path>
<path fill="#fff" style="fill: var(--color2, #fff)" d="M55.071 21.255c-0.512 0.512-1.136 0.768-1.872 0.768s-1.36-0.256-1.872-0.768c-0.512-0.517-0.768-1.141-0.768-1.872s0.256-1.353 0.768-1.865c0.512-0.517 1.136-0.775 1.872-0.775s1.36 0.258 1.872 0.775c0.512 0.512 0.768 1.134 0.768 1.865s-0.256 1.356-0.768 1.872zM51.597 20.992c0.439 0.439 0.973 0.658 1.602 0.658s1.16-0.219 1.595-0.658c0.439-0.444 0.658-0.98 0.658-1.609s-0.219-1.163-0.658-1.602c-0.434-0.444-0.965-0.666-1.594-0.666s-1.163 0.222-1.602 0.666c-0.434 0.439-0.651 0.973-0.651 1.602s0.217 1.165 0.651 1.609z"></path>
<path fill="#fff" style="fill: var(--color2, #fff)" d="M61.693 19.558v0.198c0 0.639-0.227 1.178-0.68 1.616-0.453 0.434-1.051 0.651-1.792 0.651-0.78 0-1.424-0.254-1.931-0.761-0.507-0.512-0.761-1.139-0.761-1.88s0.251-1.365 0.753-1.872c0.502-0.512 1.139-0.768 1.909-0.768 0.468 0 0.897 0.112 1.287 0.336 0.395 0.224 0.7 0.524 0.914 0.9l-0.344 0.205c-0.171-0.322-0.424-0.58-0.761-0.775-0.332-0.195-0.697-0.293-1.097-0.293-0.663 0-1.209 0.219-1.638 0.658-0.424 0.434-0.636 0.97-0.636 1.609s0.215 1.178 0.644 1.616c0.429 0.434 0.983 0.651 1.66 0.651 0.6 0 1.085-0.163 1.456-0.49s0.578-0.739 0.622-1.236h-2.172v-0.366h2.567z"></path>
<path fill="#fff" style="fill: var(--color2, #fff)" d="M63.053 21.577h2.414v0.366h-2.801v-5.12h0.388v4.754z"></path>
<path fill="#fff" style="fill: var(--color2, #fff)" d="M66.66 21.577h2.56v0.366h-2.948v-5.12h2.911v0.366h-2.523v1.989h2.341v0.366h-2.341v2.033z"></path>
<path fill="#fff" style="fill: var(--color2, #fff)" d="M73.863 16.823c0.458 0 0.839 0.151 1.141 0.454s0.454 0.68 0.454 1.134c0 0.453-0.151 0.831-0.454 1.134-0.302 0.297-0.683 0.446-1.141 0.446h-1.353v1.953h-0.388v-5.12h1.741zM73.863 19.624c0.351 0 0.639-0.115 0.863-0.344 0.229-0.229 0.344-0.519 0.344-0.87 0-0.356-0.115-0.648-0.344-0.878-0.224-0.229-0.512-0.344-0.863-0.344h-1.353v2.436h1.353z"></path>
<path fill="#fff" style="fill: var(--color2, #fff)" d="M76.803 21.577h2.414v0.366h-2.801v-5.12h0.388v4.754z"></path>
<path fill="#fff" style="fill: var(--color2, #fff)" d="M83.61 21.943l-0.497-1.302h-2.567l-0.497 1.302h-0.41l1.99-5.12h0.41l1.982 5.12h-0.41zM80.692 20.275h2.282l-1.141-2.977-1.141 2.977z"></path>
<path fill="#fff" style="fill: var(--color2, #fff)" d="M87.663 16.823l-1.865 3.014v2.107h-0.388v-2.107l-1.865-3.014h0.439l1.624 2.64 1.616-2.64h0.439z"></path>
</symbol>
<symbol id="heart" viewBox="0 0 32 32">
<path fill="#4152ca" style="fill: var(--color13, #4152ca)" d="M29.383 3.927c-1.655-1.779-3.974-2.791-6.404-2.795-2.432 0.003-4.754 1.015-6.411 2.794l-0.565 0.597-0.565-0.597c-3.289-3.54-8.826-3.744-12.366-0.454-0.157 0.146-0.308 0.297-0.454 0.454-3.489 3.764-3.489 9.58 0 13.344l12.555 13.24c0.434 0.459 1.158 0.478 1.617 0.044 0.015-0.014 0.030-0.029 0.044-0.044l12.551-13.24c3.489-3.763 3.489-9.58-0-13.343zM27.728 15.695h-0.001l-11.725 12.366-11.726-12.366c-2.666-2.876-2.666-7.32 0-10.196 2.421-2.624 6.51-2.788 9.134-0.367 0.127 0.118 0.25 0.24 0.367 0.367l1.394 1.471c0.459 0.456 1.201 0.456 1.661 0l1.394-1.47c2.421-2.624 6.51-2.788 9.134-0.367 0.127 0.118 0.25 0.24 0.368 0.367 2.689 2.88 2.708 7.332 0 10.194z"></path>
</symbol>
<symbol id="instagram" viewBox="0 0 33 32">
<path fill="#e61f5a" style="fill: var(--color14, #e61f5a)" d="M16.669 7.796c-4.54 0-8.204 3.664-8.204 8.204s3.664 8.204 8.204 8.204c4.54 0 8.204-3.664 8.204-8.204s-3.664-8.204-8.204-8.204zM16.669 21.332c-2.936 0-5.332-2.396-5.332-5.332s2.396-5.332 5.332-5.332c2.936 0 5.332 2.396 5.332 5.332s-2.396 5.332-5.332 5.332zM25.209 5.548c-1.060 0-1.916 0.856-1.916 1.916s0.856 1.916 1.916 1.916c1.060 0 1.916-0.852 1.916-1.916 0-0.252-0.049-0.501-0.145-0.734s-0.237-0.444-0.415-0.622-0.389-0.319-0.622-0.415c-0.233-0.096-0.482-0.146-0.734-0.145zM32.661 16c0-2.208 0.020-4.396-0.104-6.6-0.124-2.56-0.708-4.832-2.58-6.704-1.876-1.876-4.144-2.456-6.704-2.58-2.208-0.124-4.396-0.104-6.6-0.104-2.208 0-4.396-0.020-6.6 0.104-2.56 0.124-4.832 0.708-6.704 2.58-1.876 1.876-2.456 4.144-2.58 6.704-0.124 2.208-0.104 4.396-0.104 6.6s-0.020 4.396 0.104 6.6c0.124 2.56 0.708 4.832 2.58 6.704 1.876 1.876 4.144 2.456 6.704 2.58 2.208 0.124 4.396 0.104 6.6 0.104 2.208 0 4.396 0.020 6.6-0.104 2.56-0.124 4.832-0.708 6.704-2.58 1.876-1.876 2.456-4.144 2.58-6.704 0.128-2.204 0.104-4.392 0.104-6.6zM29.141 25.432c-0.292 0.728-0.644 1.272-1.208 1.832-0.564 0.564-1.104 0.916-1.832 1.208-2.104 0.836-7.1 0.648-9.432 0.648s-7.332 0.188-9.436-0.644c-0.728-0.292-1.272-0.644-1.832-1.208-0.564-0.564-0.916-1.104-1.208-1.832-0.832-2.108-0.644-7.104-0.644-9.436s-0.188-7.332 0.644-9.436c0.292-0.728 0.644-1.272 1.208-1.832s1.104-0.916 1.832-1.208c2.104-0.832 7.104-0.644 9.436-0.644s7.332-0.188 9.436 0.644c0.728 0.292 1.272 0.644 1.832 1.208 0.564 0.564 0.916 1.104 1.208 1.832 0.832 2.104 0.644 7.104 0.644 9.436s0.188 7.328-0.648 9.432z"></path>
</symbol>
<symbol id="leaf" viewBox="0 0 32 32">
<path fill="#f5f5f5" style="fill: var(--color15, #f5f5f5)" d="M32 16c0 8.837-7.163 16-16 16s-16-7.163-16-16c0-8.837 7.163-16 16-16s16 7.163 16 16z"></path>
<path fill="#84829a" style="fill: var(--color3, #84829a)" d="M21.915 10.801c-0.328-0.096-8.348-0.895-11.165 2.911-1.248 1.686-1.266 3.997-0.063 6.868-0.305 0.634-0.573 1.301-0.79 2.006-0.066 0.214 0.054 0.441 0.267 0.507 0.040 0.012 0.080 0.018 0.12 0.018 0.173 0 0.333-0.112 0.387-0.286 2.147-6.941 9.124-10.299 11.263-11.147 0.208-0.083 0.486-0.73-0.019-0.878z"></path>
<path fill="#84829a" style="fill: var(--color3, #84829a)" d="M11.975 21.449c1.161 0.487 2.322 0.737 3.402 0.737 0.971 0 1.876-0.2 2.655-0.604 1.57-0.814 2.529-2.372 2.774-4.505 0.25-2.174 0.56-3.535 0.819-4.368-2.307 1.064-7.253 3.822-9.651 8.74z"></path>
</symbol>
<symbol id="logo" viewBox="0 0 106 32">
<path fill="#f1a501" style="fill: var(--color16, #f1a501)" d="M68.571 26.514l8.686 2.743 7.314-7.314 9.143 6.4 9.6-1.829-4.114-13.257-14.629 4.571-8.229-4.571-8.686 1.371 0.914 11.886z"></path>
<path fill="#000" style="fill: var(--color17, #000)" d="M0.841 22.001v-1.977l5.594-1.009v2.734c0.028 1.486 0.407 2.608 1.136 3.365 0.757 0.729 1.752 1.093 2.986 1.093 1.206 0 2.159-0.392 2.86-1.178 0.729-0.785 1.094-1.837 1.094-3.154v-20.608h5.804v20.608c0 2.748-0.911 5.075-2.734 6.982s-4.15 2.86-6.982 2.86c-2.944 0-5.313-0.883-7.108-2.65-1.766-1.794-2.65-4.15-2.65-7.066z"></path>
<path fill="#000" style="fill: var(--color17, #000)" d="M21.647 25.45c0-1.766 0.575-3.182 1.724-4.248s2.636-1.738 4.458-2.019l5.089-0.757c1.037-0.14 1.556-0.631 1.556-1.472 0-0.785-0.308-1.43-0.925-1.935-0.589-0.505-1.444-0.757-2.566-0.757-1.178 0-2.117 0.322-2.818 0.967-0.673 0.645-1.051 1.444-1.136 2.397l-4.963-1.051c0.196-1.794 1.079-3.379 2.65-4.752s3.645-2.061 6.224-2.061c3.084 0 5.355 0.743 6.813 2.229 1.458 1.458 2.187 3.336 2.187 5.636v10.178c0 1.234 0.084 2.327 0.252 3.28h-5.131c-0.14-0.617-0.21-1.444-0.21-2.481-1.318 2.047-3.351 3.070-6.098 3.070-2.131 0-3.855-0.617-5.173-1.851-1.29-1.234-1.935-2.692-1.935-4.374zM29.933 27.511c1.318 0 2.397-0.365 3.238-1.093 0.869-0.757 1.304-1.991 1.304-3.701v-0.925l-4.668 0.715c-1.71 0.252-2.566 1.122-2.566 2.608 0 0.673 0.238 1.248 0.715 1.724 0.477 0.449 1.136 0.673 1.977 0.673z"></path>
<path fill="#000" style="fill: var(--color17, #000)" d="M61.858 0.636v26.706c0 1.374 0.056 2.622 0.168 3.743h-5.341c-0.14-0.701-0.21-1.5-0.21-2.397-0.477 0.869-1.234 1.57-2.271 2.103-1.009 0.533-2.187 0.799-3.533 0.799-2.944 0-5.369-1.023-7.276-3.070-1.879-2.075-2.818-4.682-2.818-7.823 0-3.056 0.925-5.622 2.776-7.696 1.879-2.075 4.262-3.112 7.15-3.112 2.972 0 4.921 0.855 5.846 2.566v-11.818h5.51zM46.213 20.698c0 1.822 0.477 3.266 1.43 4.332 0.953 1.037 2.187 1.556 3.701 1.556 1.486 0 2.706-0.533 3.659-1.598s1.43-2.509 1.43-4.332c0-1.794-0.477-3.196-1.43-4.206-0.953-1.037-2.173-1.556-3.659-1.556s-2.72 0.519-3.701 1.556c-0.953 1.037-1.43 2.453-1.43 4.248z"></path>
<path fill="#000" style="fill: var(--color17, #000)" d="M70.114 25.072c1.037 1.037 2.285 1.556 3.743 1.556s2.692-0.519 3.701-1.556c1.037-1.037 1.556-2.481 1.556-4.332s-0.519-3.294-1.556-4.332c-1.009-1.037-2.243-1.556-3.701-1.556s-2.706 0.519-3.743 1.556c-1.009 1.037-1.514 2.481-1.514 4.332s0.505 3.294 1.514 4.332zM66.076 12.875c2.075-2.075 4.668-3.112 7.781-3.112s5.692 1.037 7.739 3.112c2.075 2.075 3.112 4.696 3.112 7.865s-1.037 5.79-3.112 7.865c-2.047 2.075-4.626 3.112-7.739 3.112s-5.706-1.037-7.781-3.112c-2.047-2.075-3.070-4.696-3.070-7.865s1.023-5.79 3.070-7.865z"></path>
<path fill="#000" style="fill: var(--color17, #000)" d="M91.31 25.072c1.038 1.037 2.285 1.556 3.743 1.556s2.692-0.519 3.701-1.556c1.038-1.037 1.556-2.481 1.556-4.332s-0.518-3.294-1.556-4.332c-1.009-1.037-2.243-1.556-3.701-1.556s-2.705 0.519-3.743 1.556c-1.009 1.037-1.514 2.481-1.514 4.332s0.505 3.294 1.514 4.332zM87.272 12.875c2.075-2.075 4.668-3.112 7.781-3.112s5.691 1.037 7.739 3.112c2.075 2.075 3.112 4.696 3.112 7.865s-1.038 5.79-3.112 7.865c-2.047 2.075-4.626 3.112-7.739 3.112s-5.706-1.037-7.781-3.112c-2.047-2.075-3.070-4.696-3.070-7.865s1.023-5.79 3.070-7.865z"></path>
</symbol>
<symbol id="map" viewBox="0 0 32 32">
<path fill="#f5f5f5" style="fill: var(--color15, #f5f5f5)" d="M32 16c0 8.837-7.163 16-16 16s-16-7.163-16-16c0-8.837 7.163-16 16-16s16 7.163 16 16z"></path>
<path fill="#84829a" style="fill: var(--color3, #84829a)" d="M20.89 9.778c-0.069 0-0.137 0.016-0.199 0.047l-3.368 1.684-3.808-1.693c-0.006-0.003-0.013-0.003-0.020-0.006-0.017-0.006-0.035-0.012-0.052-0.016s-0.036-0.008-0.054-0.011c-0.036-0.003-0.072-0.003-0.108 0-0.018 0.003-0.036 0.006-0.054 0.011s-0.035 0.010-0.052 0.016c-0.007 0.003-0.014 0.003-0.020 0.006l-4 1.778c-0.161 0.071-0.264 0.231-0.264 0.406v9.778c0 0.15 0.076 0.291 0.202 0.372s0.285 0.095 0.423 0.034l3.82-1.698 3.819 1.698c0.007 0.003 0.014 0 0.020 0.004 0.108 0.048 0.231 0.045 0.336-0.008 0.007-0.003 0.015 0 0.022-0.005l3.555-1.778c0.151-0.075 0.246-0.229 0.246-0.398v-9.778c0-0.245-0.199-0.445-0.444-0.445zM12.89 19.711l-3.111 1.383v-8.805l3.111-1.383v8.805zM16.89 21.094l-3.111-1.383v-8.805l3.111 1.383v8.805zM20.445 19.725l-2.667 1.333v-8.784l2.667-1.333v8.784z"></path>
</symbol>
<symbol id="mob-menu" viewBox="0 0 55 32">
<path fill="#737373" style="fill: var(--color18, #737373)" d="M1.306 0h52.245v5.224h-52.245v-5.224zM14.368 13.061h39.184v5.224h-39.184v-5.224zM30.694 26.122h22.857v5.224h-22.857v-5.224z"></path>
</symbol>
<symbol id="nav-arrow" viewBox="0 0 32 32">
<path d="M28.909 4.417l-11 24c-0.092 0.201-0.248 0.366-0.444 0.469s-0.42 0.138-0.638 0.1c-0.218-0.038-0.417-0.147-0.566-0.311s-0.24-0.371-0.258-0.592l-0.93-11.157-11.157-0.93c-0.22-0.018-0.428-0.109-0.592-0.258s-0.272-0.348-0.311-0.566c-0.038-0.218-0.003-0.442 0.1-0.638s0.268-0.352 0.469-0.444l24-11c0.186-0.085 0.393-0.111 0.594-0.075s0.386 0.133 0.53 0.277 0.241 0.329 0.277 0.53c0.036 0.201 0.010 0.408-0.075 0.594l0 0z"></path>
</symbol>
<symbol id="send" viewBox="0 0 32 32">
<path fill="#f5f5f5" style="fill: var(--color15, #f5f5f5)" d="M32 16c0 8.837-7.163 16-16 16s-16-7.163-16-16c0-8.837 7.163-16 16-16s16 7.163 16 16z"></path>
<path fill="#84829a" style="fill: var(--color3, #84829a)" d="M20.75 11.771l-5.616 5.636c-0.064-0.037-0.132-0.069-0.202-0.093l-3.707-1.255c-0.112-0.028-0.212-0.093-0.283-0.184s-0.11-0.203-0.11-0.319c0-0.116 0.039-0.228 0.11-0.319s0.171-0.156 0.283-0.184l9.199-3.272c0.060-0.020 0.123-0.031 0.187-0.031 0.047-0.001 0.095 0.006 0.14 0.021z"></path>
<path fill="#84829a" style="fill: var(--color3, #84829a)" d="M21.107 12.466l-3.272 9.209c-0.036 0.107-0.106 0.2-0.2 0.264s-0.206 0.095-0.319 0.089c-0.114 0.005-0.227-0.028-0.321-0.093s-0.163-0.161-0.197-0.27l-1.234-3.707c-0.025-0.070-0.056-0.138-0.093-0.202l5.647-5.616c0.032 0.107 0.028 0.222-0.010 0.327z"></path>
</symbol>
<symbol id="twitter" viewBox="0 0 40 32">
<path fill="#21a6df" style="fill: var(--color26, #21a6df)" d="M39.201 3.945c-1.411 0.617-2.946 1.062-4.527 1.235 1.642-0.99 2.871-2.553 3.457-4.397-1.54 0.93-3.228 1.582-4.988 1.927-0.736-0.798-1.625-1.434-2.613-1.867s-2.054-0.656-3.131-0.654c-4.356 0-7.86 3.583-7.86 7.981 0 0.617 0.074 1.235 0.194 1.829-6.523-0.346-12.341-3.509-16.208-8.35-0.705 1.222-1.074 2.612-1.069 4.028 0 2.769 1.388 5.211 3.503 6.648-1.247-0.050-2.465-0.398-3.554-1.015v0.098c0 3.878 2.701 7.092 6.302 7.831-0.676 0.178-1.371 0.269-2.070 0.271-0.512 0-0.996-0.052-1.484-0.122 0.996 3.162 3.895 5.459 7.348 5.534-2.701 2.147-6.085 3.41-9.759 3.41-0.659 0-1.268-0.023-1.899-0.098 3.485 2.269 7.62 3.579 12.073 3.579 14.456 0 22.367-12.154 22.367-22.703 0-0.346 0-0.692-0.023-1.039 1.531-1.137 2.872-2.545 3.941-4.126z"></path>
</symbol>
<symbol id="youtube" viewBox="0 0 44 32">
<path fill="#e42f08" style="fill: var(--color36, #e42f08)" d="M42.613 5.211c-0.242-0.947-0.718-1.811-1.377-2.505s-1.481-1.193-2.382-1.448c-3.318-0.944-16.653-0.944-16.653-0.944s-13.334 0-16.653 0.944c-0.901 0.255-1.723 0.754-2.382 1.448s-1.135 1.558-1.377 2.505c-0.62 3.559-0.92 7.17-0.898 10.788-0.022 3.618 0.278 7.229 0.898 10.788 0.243 0.948 0.717 1.811 1.377 2.505s1.481 1.193 2.382 1.448c3.318 0.944 16.653 0.944 16.653 0.944s13.334 0 16.653-0.944c0.901-0.255 1.723-0.755 2.382-1.448s1.135-1.558 1.377-2.505c0.62-3.559 0.92-7.17 0.898-10.788 0.022-3.618-0.279-7.229-0.898-10.788zM17.939 22.722v-13.445l11.066 6.723-11.066 6.723z"></path>
</symbol>
</defs>
</svg>
