<svg width="131" height="108" viewBox="0 0 131 108" fill="none" xmlns="http://www.w3.org/2000/svg">
<path d="M76.7607 60.7038C75.3884 60.8767 74.0692 61.3324 72.885 62.0421C69.7965 63.8372 68.1098 66.701 69.1179 68.438C70.1261 70.175 73.4469 70.127 76.5354 68.3319C77.7381 67.654 78.7872 66.7335 79.6183 65.6274C80.0025 65.0911 80.0338 64.3733 79.6984 63.797L78.3888 61.5405C78.0553 60.9627 77.4165 60.6347 76.7607 60.7038Z" fill="#D5D6DB"/>
<path d="M68.796 33.4453C67.801 33.5708 66.8443 33.9014 65.9855 34.4162C63.7465 35.7175 62.5227 37.794 63.2531 39.0525C63.9835 40.311 66.3925 40.276 68.6312 38.9748C69.5032 38.4829 70.2639 37.815 70.8666 37.0129C71.1448 36.6241 71.1674 36.1041 70.9243 35.6862L69.976 34.0523C69.7345 33.6335 69.2715 33.3953 68.796 33.4453Z" fill="#D5D6DB"/>
<path d="M55.6922 33.3457C55.4663 33.2947 55.2309 33.3309 55.0318 33.4466L49.7814 36.4924C49.3421 36.7462 49.1945 37.3122 49.4521 37.7569C49.511 37.8588 49.5887 37.9489 49.6807 38.0218L63.7574 49.245L81.265 39.0891L55.6922 33.3457Z" fill="#029BC5"/>
<path d="M113.542 35.717L64.5731 65.192L35.1481 74.9472L19.9427 76.5532L18.0613 73.1976L99.7511 25.1986C102.185 23.7608 104.948 23.0229 107.759 23.06C108.991 23.0836 110.217 23.2683 111.409 23.6094C112.465 23.9028 113.476 24.3518 114.414 24.943C115.46 25.6112 117.394 25.895 118.084 27.0671C118.086 27.0656 119.86 32.2876 113.542 35.717Z" fill="#E1E6E9"/>
<path d="M63.9831 58.7024L44.3699 93.619C44.1284 94.1133 44.3256 94.7193 44.8099 94.9725C45.1072 95.1279 45.4591 95.1192 45.745 94.9495L51.0799 91.7889C52.106 91.1807 52.9978 90.3619 53.7002 89.3833L92.8749 40.6949L63.9831 58.7024Z" fill="#029BC5"/>
<path d="M10.258 57.9839C9.89557 57.8192 9.47733 57.838 9.13527 58.0342L4.84036 60.4981C4.25513 60.8335 4.05931 61.5805 4.40281 62.1669C4.46824 62.2783 4.55056 62.3792 4.64712 62.4654L17.8198 74.2584L30.4819 67.1681L10.258 57.9839Z" fill="#029BC5"/>
<path d="M21.2567 75.3121L14.9356 85.0089C14.8428 85.148 14.878 85.3397 15.0143 85.4369C15.1126 85.5069 15.2413 85.5108 15.3418 85.4468L19.4715 82.9933C19.5035 82.9742 19.5321 82.949 19.5552 82.9192L28.9119 70.7692L21.2567 75.3121Z" fill="#029BC5"/>
<path d="M111.18 23.3829C109.979 23.0492 108.743 22.8691 107.501 22.8461C106.393 24.5055 105.737 26.4351 105.599 28.4424C105.605 28.8493 105.935 29.1784 106.337 29.1775C106.462 29.1771 106.584 29.1444 106.692 29.0822L114.209 24.6876C113.264 24.1091 112.244 23.6698 111.18 23.3829Z" fill="#029BC5"/>
<path d="M94.3494 31.7129L99.0704 29.0715L104.138 37.5427L99.4173 40.184L94.3494 31.7129Z" fill="#D5D6DB"/>
<path d="M91.0902 35.2681C90.5182 35.5886 90.3275 36.3092 90.6647 36.8774L91.211 37.798C91.5672 38.3549 92.3103 38.531 92.8709 38.1913C93.4044 37.8677 93.5841 37.1888 93.2817 36.6375L92.7355 35.717C92.3985 35.1492 91.6622 34.9482 91.0902 35.2681Z" fill="#3A556A"/>
<path d="M86.535 38.0674C85.963 38.3879 85.7723 39.1085 86.1095 39.6767L86.6558 40.5973C87.012 41.1542 87.7551 41.3304 88.3157 40.9906C88.8492 40.6671 89.0289 39.9882 88.7266 39.4369L88.1803 38.5163C87.8431 37.9487 87.1068 37.7476 86.535 38.0674Z" fill="#3A556A"/>
<path d="M81.9784 40.8673C81.4071 41.1884 81.2172 41.9081 81.5541 42.4759L82.1004 43.3964C82.4566 43.9533 83.1997 44.1295 83.7603 43.7898C84.2938 43.4662 84.4735 42.7873 84.1711 42.236L83.6249 41.3155C83.2877 40.7473 82.5506 40.5466 81.9784 40.8673Z" fill="#3A556A"/>
<path d="M77.423 43.6666C76.8517 43.9877 76.6618 44.7075 76.9987 45.2752L77.5449 46.1958C77.9012 46.7527 78.6443 46.9289 79.2049 46.5891C79.7384 46.2656 79.9181 45.5867 79.6157 45.0354L79.0694 44.1148C78.732 43.5467 77.9949 43.3461 77.423 43.6666Z" fill="#3A556A"/>
<path d="M72.8677 46.4657C72.2963 46.7867 72.1064 47.5063 72.4433 48.0739L72.9897 48.9943C73.3265 49.5617 74.0629 49.7621 74.6345 49.442C75.2061 49.1218 75.3964 48.4023 75.0596 47.8349L74.5132 46.9145C74.1772 46.3467 73.441 46.1456 72.8689 46.465C72.8685 46.4653 72.8682 46.4654 72.8677 46.4657Z" fill="#3A556A"/>
<path d="M68.3125 49.265C67.7411 49.586 67.5512 50.3056 67.8881 50.8733L68.4345 51.7936C68.7713 52.361 69.5077 52.5614 70.0793 52.2413C70.6509 51.9211 70.8412 51.2016 70.5044 50.6342L69.9581 49.7138C69.622 49.1461 68.8858 48.9449 68.3138 49.2643C68.3133 49.2646 68.3128 49.2649 68.3125 49.265Z" fill="#3A556A"/>
<path d="M63.7569 52.0643C63.1855 52.3854 62.9955 53.105 63.3325 53.6726L63.8788 54.5929C64.2163 55.1599 64.953 55.3592 65.524 55.0385C66.0939 54.7183 66.2839 54.0003 65.9485 53.4337L65.4021 52.5133C65.0654 51.9455 64.329 51.7445 63.7569 52.0643Z" fill="#3A556A"/>
<path d="M59.2015 54.8636C58.63 55.1847 58.4401 55.9043 58.7771 56.4719L59.3234 57.3923C59.6609 57.9593 60.3976 58.1586 60.9685 57.8378C61.5385 57.5176 61.7284 56.7996 61.3931 56.233L60.8467 55.3126C60.51 54.7448 59.7736 54.5438 59.2015 54.8636Z" fill="#3A556A"/>
<path d="M54.6463 57.663C54.0749 57.984 53.8849 58.7036 54.2219 59.2712L54.7682 60.1916C55.1058 60.7586 55.8424 60.9578 56.4134 60.6371C56.9833 60.3169 57.1733 59.5989 56.8379 59.0323L56.2915 58.1119C55.9546 57.5443 55.2182 57.3433 54.6463 57.663Z" fill="#3A556A"/>
<path d="M50.0894 60.463C49.5178 60.7832 49.3275 61.5027 49.6643 62.0701L49.665 62.0713L50.2113 62.9917C50.5489 63.5587 51.2856 63.758 51.8565 63.4372C52.4264 63.117 52.6164 62.399 52.281 61.8324L51.7347 60.912C51.398 60.3442 50.6615 60.1432 50.0894 60.463Z" fill="#3A556A"/>
<path d="M45.5355 63.2615C44.9639 63.5816 44.7735 64.3011 45.1103 64.8685L45.111 64.8697L45.6574 65.7901C45.9949 66.3571 46.7316 66.5564 47.3026 66.2356C47.8725 65.9154 48.0625 65.1974 47.7271 64.6308L47.1808 63.7105C46.8438 63.1428 46.1073 62.9418 45.5355 63.2615Z" fill="#3A556A"/>
</svg>
