<svg width="47" height="48" viewBox="0 0 47 48" fill="none" xmlns="http://www.w3.org/2000/svg">
<rect width="47" height="48" rx="13" fill="#F15A2B"/>
<path d="M32.8184 31.9286C32.3682 31.9378 31.926 31.809 31.5512 31.5595C31.2723 31.3772 30.9462 31.2802 30.613 31.2802C30.2797 31.2802 29.9537 31.3772 29.6747 31.5595C29.2961 31.8006 28.8566 31.9286 28.4077 31.9286C27.9589 31.9286 27.5194 31.8006 27.1408 31.5595C26.8618 31.377 26.5357 31.2799 26.2023 31.2799C25.869 31.2799 25.5429 31.377 25.2639 31.5595C24.8853 31.8006 24.4458 31.9286 23.9969 31.9286C23.5481 31.9286 23.1086 31.8006 22.7299 31.5595C22.4512 31.3772 22.1253 31.28 21.7922 31.28C21.459 31.28 21.1331 31.3772 20.8544 31.5595C20.5111 31.7876 20.1105 31.9144 19.6985 31.9253L19.6758 31.2767C19.9801 31.2695 20.2757 31.1732 20.5258 30.9997C20.9044 30.7587 21.3438 30.6307 21.7925 30.6307C22.2412 30.6307 22.6806 30.7587 23.0591 30.9997C23.3381 31.1821 23.6641 31.2792 23.9974 31.2792C24.3307 31.2792 24.6567 31.1821 24.9357 30.9997C25.3143 30.7585 25.754 30.6304 26.203 30.6304C26.6519 30.6304 27.0916 30.7585 27.4703 30.9997C27.7492 31.1821 28.0753 31.2792 28.4085 31.2792C28.7418 31.2792 29.0679 31.1821 29.3468 30.9997C29.7255 30.7588 30.165 30.6308 30.6138 30.6308C31.0626 30.6308 31.5021 30.7588 31.8808 30.9997C32.1604 31.1825 32.4872 31.2799 32.8213 31.2799C33.1554 31.2799 33.4822 31.1825 33.7618 30.9997C34.1362 30.751 34.5776 30.6224 35.027 30.6313V31.2799C34.6924 31.2708 34.3636 31.3686 34.0884 31.5592C33.7127 31.809 33.2695 31.9379 32.8184 31.9286Z" fill="white"/>
<path d="M15.1784 31.9285C14.7283 31.9378 14.2862 31.809 13.9116 31.5594C13.6364 31.3686 13.3076 31.2707 12.973 31.2798V30.6312C13.4231 30.6218 13.8654 30.7506 14.2401 31.0002C14.5151 31.191 14.8438 31.289 15.1784 31.2798C15.5131 31.289 15.842 31.1909 16.117 30.9999C16.4909 30.7504 16.9324 30.6217 17.3818 30.6312C17.8204 30.6213 18.2516 30.7442 18.6191 30.9837L18.2919 31.5435C18.0234 31.3628 17.7053 31.2706 17.3818 31.2798C17.0485 31.2708 16.721 31.3685 16.4471 31.5587C16.0721 31.809 15.6292 31.9381 15.1784 31.9285Z" fill="white"/>
<path d="M32.8193 29.6579C32.3689 29.6671 31.9264 29.5383 31.5512 29.2888C31.272 29.1064 30.9457 29.0092 30.6122 29.0092C30.2786 29.0092 29.9523 29.1064 29.6731 29.2888C29.2945 29.5298 28.855 29.6578 28.4063 29.6578C27.9575 29.6578 27.518 29.5298 27.1395 29.2888C26.8606 29.1065 26.5347 29.0094 26.2015 29.0094C25.8683 29.0094 25.5424 29.1065 25.2636 29.2888C24.885 29.5299 24.4455 29.6579 23.9967 29.6579C23.548 29.6579 23.1085 29.5299 22.7299 29.2888C22.4511 29.1065 22.1252 29.0094 21.792 29.0094C21.4588 29.0094 21.1329 29.1065 20.854 29.2888C20.4794 29.5384 20.0373 29.6672 19.5872 29.6579C19.1372 29.6672 18.695 29.5384 18.3204 29.2888C18.0455 29.0981 17.7169 29.0001 17.3825 29.0093C17.0481 29.0002 16.7196 29.0981 16.4449 29.2888C16.0708 29.5381 15.6294 29.6669 15.18 29.6579C14.7298 29.6672 14.2876 29.5384 13.9129 29.2888C13.6374 29.0977 13.3081 28.9997 12.973 29.0093V28.3606C13.423 28.3513 13.8651 28.4801 14.2398 28.7297C14.5149 28.9204 14.8437 29.0184 15.1784 29.0093C15.5127 29.0183 15.8412 28.9204 16.116 28.7297C16.49 28.4804 16.9314 28.3516 17.3809 28.3606C17.8313 28.351 18.2738 28.4799 18.6486 28.7297C18.9236 28.9205 19.2524 29.0184 19.5869 29.0093C19.9215 29.0184 20.2502 28.9205 20.5252 28.7297C20.9037 28.4886 21.3432 28.3605 21.792 28.3605C22.2408 28.3605 22.6803 28.4886 23.0588 28.7297C23.3377 28.9121 23.6637 29.0092 23.9969 29.0092C24.3301 29.0092 24.6561 28.9121 24.935 28.7297C25.3136 28.4886 25.753 28.3605 26.2018 28.3605C26.6506 28.3605 27.0901 28.4886 27.4686 28.7297C27.7475 28.9121 28.0735 29.0092 28.4067 29.0092C28.74 29.0092 29.066 28.9121 29.3449 28.7297C29.7238 28.4887 30.1636 28.3607 30.6126 28.3607C31.0617 28.3607 31.5015 28.4887 31.8804 28.7297C32.1598 28.912 32.4862 29.0091 32.8198 29.0091C33.1534 29.0091 33.4798 28.912 33.7592 28.7297C34.1343 28.4803 34.5767 28.3515 35.027 28.3606V29.0093C34.6917 28.9998 34.3622 29.0977 34.0865 29.2888C33.7116 29.5381 33.2695 29.6669 32.8193 29.6579Z" fill="white"/>
<path d="M32.8184 27.388C32.3682 27.3972 31.926 27.2684 31.5512 27.0189C31.2761 26.8282 30.9473 26.7303 30.6126 26.7394C30.367 26.7309 30.1232 26.7833 29.9027 26.8918L29.6166 26.308C29.9263 26.1563 30.2679 26.0814 30.6126 26.0897C31.0633 26.0806 31.506 26.2097 31.8811 26.4598C32.1607 26.6426 32.4875 26.7399 32.8216 26.7399C33.1557 26.7399 33.4825 26.6426 33.7622 26.4598C34.1364 26.2109 34.5777 26.0821 35.027 26.0907V26.7394C34.6924 26.7302 34.3636 26.828 34.0884 27.0186C33.7127 27.2685 33.2695 27.3974 32.8184 27.388Z" fill="white"/>
<path d="M28.4043 27.3879C27.9549 27.3973 27.5134 27.2686 27.1394 27.0191C26.8605 26.8366 26.5344 26.7395 26.201 26.7395C25.8677 26.7395 25.5416 26.8366 25.2626 27.0191C24.884 27.2602 24.4444 27.3882 23.9956 27.3882C23.5468 27.3882 23.1073 27.2602 22.7286 27.0191C22.4497 26.8367 22.1236 26.7396 21.7904 26.7396C21.4571 26.7396 21.131 26.8367 20.8521 27.0191C20.4775 27.2683 20.0357 27.397 19.5859 27.3879C19.1359 27.3972 18.6938 27.2684 18.3191 27.0188C18.044 26.8281 17.7152 26.7301 17.3805 26.7392C17.0472 26.7302 16.7197 26.828 16.4458 27.0181C16.0711 27.2682 15.6287 27.3972 15.1784 27.3879C14.7283 27.3972 14.2862 27.2684 13.9116 27.0188C13.6364 26.8281 13.3076 26.7301 12.973 26.7392V26.0906C13.4231 26.0812 13.8654 26.21 14.2401 26.4597C14.5151 26.6504 14.8438 26.7484 15.1784 26.7392C15.5131 26.7484 15.842 26.6503 16.117 26.4593C16.4909 26.2098 16.9324 26.0811 17.3818 26.0906C17.8319 26.0813 18.274 26.2101 18.6486 26.4597C18.9236 26.6504 19.2524 26.7484 19.5869 26.7392C19.9216 26.7483 20.2504 26.6504 20.5255 26.4597C20.9041 26.2186 21.3436 26.0906 21.7925 26.0906C22.2413 26.0906 22.6808 26.2186 23.0594 26.4597C23.3384 26.642 23.6644 26.7391 23.9977 26.7391C24.331 26.7391 24.657 26.642 24.936 26.4597C25.3147 26.2184 25.7543 26.0903 26.2033 26.0903C26.6523 26.0903 27.0919 26.2184 27.4706 26.4597C27.7563 26.6518 28.0952 26.7495 28.4393 26.7389C28.4644 26.7392 28.4894 26.7379 28.5143 26.735L28.6005 27.3778C28.5354 27.3854 28.4699 27.3888 28.4043 27.3879Z" fill="white"/>
<path d="M32.8193 25.1174C32.3689 25.1266 31.9264 24.9978 31.5512 24.7483C31.272 24.5658 30.9457 24.4687 30.6122 24.4687C30.2786 24.4687 29.9523 24.5658 29.6731 24.7483C29.2945 24.9893 28.855 25.1173 28.4063 25.1173C27.9575 25.1173 27.518 24.9893 27.1395 24.7483C26.8606 24.5659 26.5347 24.4688 26.2015 24.4688C25.8683 24.4688 25.5424 24.5659 25.2636 24.7483C24.885 24.9893 24.4455 25.1174 23.9967 25.1174C23.548 25.1174 23.1085 24.9893 22.7299 24.7483C22.4511 24.5659 22.1252 24.4688 21.792 24.4688C21.4588 24.4688 21.1329 24.5659 20.854 24.7483C20.4794 24.9979 20.0373 25.1267 19.5872 25.1174C19.1372 25.1267 18.695 24.9979 18.3204 24.7483C18.0455 24.5575 17.7169 24.4596 17.3825 24.4687C17.0481 24.4596 16.7196 24.5576 16.4449 24.7483C16.0708 24.9976 15.6294 25.1264 15.18 25.1174C14.7298 25.1267 14.2876 24.9979 13.9129 24.7483C13.6374 24.5572 13.3081 24.4592 12.973 24.4687V23.8201C13.423 23.8108 13.8651 23.9396 14.2398 24.1892C14.5149 24.3799 14.8437 24.4778 15.1784 24.4687C15.5127 24.4778 15.8412 24.3799 16.116 24.1892C16.49 23.9398 16.9314 23.811 17.3809 23.8201C17.8313 23.8105 18.2738 23.9393 18.6486 24.1892C18.9236 24.3799 19.2524 24.4779 19.5869 24.4687C19.9215 24.4779 20.2502 24.3799 20.5252 24.1892C20.9037 23.9481 21.3432 23.82 21.792 23.82C22.2408 23.82 22.6803 23.9481 23.0588 24.1892C23.3377 24.3715 23.6637 24.4687 23.9969 24.4687C24.3301 24.4687 24.6561 24.3715 24.935 24.1892C25.3136 23.9481 25.753 23.82 26.2018 23.82C26.6506 23.82 27.0901 23.9481 27.4686 24.1892C27.7475 24.3715 28.0735 24.4687 28.4067 24.4687C28.74 24.4687 29.066 24.3715 29.3449 24.1892C29.7238 23.9482 30.1636 23.8202 30.6126 23.8202C31.0617 23.8202 31.5015 23.9482 31.8804 24.1892C32.1598 24.3715 32.4862 24.4686 32.8198 24.4686C33.1534 24.4686 33.4798 24.3715 33.7592 24.1892C34.1343 23.9397 34.5767 23.8109 35.027 23.8201V24.4687C34.6917 24.4592 34.3622 24.5572 34.0865 24.7483C33.7116 24.9976 33.2695 25.1264 32.8193 25.1174Z" fill="white"/>
<path d="M28.1977 24.8423L27.5857 24.6276C27.7434 24.1748 27.8077 23.6947 27.775 23.2163C27.7423 22.738 27.6132 22.2711 27.3954 21.844L25.1676 17.4815C25.1456 17.4384 25.1335 17.3909 25.1322 17.3426C25.1309 17.2942 25.1405 17.2462 25.1602 17.202C25.1798 17.1578 25.2092 17.1186 25.246 17.0872C25.2828 17.0558 25.3261 17.0331 25.3729 17.0206L29.8125 15.8368C29.9572 15.799 30.0811 15.7056 30.1572 15.5768C30.2334 15.4481 30.2556 15.2946 30.2191 15.1495C30.1826 15.0045 30.0903 14.8798 29.9623 14.8025C29.8343 14.7252 29.6809 14.7015 29.5356 14.7367L24.1622 16.021C24.0473 16.0482 23.9402 16.1014 23.8492 16.1766C23.7582 16.2518 23.6858 16.3469 23.6374 16.4546C23.5891 16.5623 23.5662 16.6796 23.5705 16.7976C23.5749 16.9155 23.6063 17.0309 23.6624 17.1348L25.2581 20.0991C25.2985 20.1744 25.3076 20.2627 25.2833 20.3447C25.259 20.4267 25.2033 20.4958 25.1283 20.5369L23.0689 21.6721L22.7559 21.1038L24.5338 20.1237L23.0919 17.4422C22.9887 17.2508 22.931 17.0382 22.9231 16.8209C22.9153 16.6036 22.9575 16.3874 23.0465 16.189C23.1355 15.9906 23.269 15.8154 23.4366 15.6768C23.6042 15.5382 23.8014 15.4401 24.013 15.3899L29.3838 14.1059C29.6965 14.0269 30.0277 14.0753 30.3047 14.2406C30.5816 14.4058 30.7816 14.6743 30.8606 14.9869C30.9396 15.2996 30.8912 15.6308 30.7259 15.9078C30.5607 16.1848 30.2922 16.3847 29.9796 16.4637L25.9275 17.5437L27.9733 21.5485C28.2309 22.054 28.3836 22.6064 28.4222 23.1725C28.4607 23.7385 28.3844 24.3065 28.1977 24.8423Z" fill="white"/>
<path d="M21.6223 21.7338L17.681 23.9055L17.9939 24.4733L21.9351 22.3016L21.6223 21.7338Z" fill="white"/>
<path d="M31.1351 22.6849C30.654 22.6849 30.1838 22.5423 29.7837 22.275C29.3837 22.0077 29.072 21.6278 28.8879 21.1834C28.7038 20.7389 28.6556 20.2498 28.7494 19.778C28.8433 19.3061 29.075 18.8727 29.4151 18.5325C29.7553 18.1923 30.1887 17.9607 30.6606 17.8668C31.1324 17.773 31.6215 17.8211 32.066 18.0052C32.5104 18.1893 32.8903 18.5011 33.1576 18.9011C33.4249 19.3011 33.5676 19.7714 33.5676 20.2525C33.5669 20.8974 33.3104 21.5157 32.8544 21.9717C32.3983 22.4278 31.78 22.6842 31.1351 22.6849ZM31.1351 18.4687C30.7823 18.4687 30.4375 18.5733 30.1441 18.7693C29.8508 18.9653 29.6221 19.2439 29.4871 19.5699C29.3521 19.8958 29.3168 20.2545 29.3856 20.6005C29.4544 20.9465 29.6243 21.2644 29.8738 21.5138C30.1233 21.7633 30.4411 21.9332 30.7871 22.002C31.1331 22.0708 31.4918 22.0355 31.8178 21.9005C32.1437 21.7655 32.4223 21.5369 32.6183 21.2435C32.8143 20.9502 32.9189 20.6053 32.9189 20.2525C32.9183 19.7796 32.7302 19.3262 32.3958 18.9918C32.0614 18.6574 31.608 18.4693 31.1351 18.4687Z" fill="white"/>
</svg>
